<?xml version="1.0" standalone="no"?>
<!DOCTYPE svg PUBLIC "-//W3C//DTD SVG 20010904//EN"
 "http://www.w3.org/TR/2001/REC-SVG-20010904/DTD/svg10.dtd">
<svg version="1.0" xmlns="http://www.w3.org/2000/svg"
 width="2000.000000pt" height="2000.000000pt" viewBox="0 0 2000.000000 2000.000000"
 preserveAspectRatio="xMidYMid meet">
<metadata>
Created by potrace 1.14, written by Peter Selinger 2001-2017
</metadata>
<g transform="translate(0.000000,2000.000000) scale(0.100000,-0.100000)"
fill="#000000" stroke="none">
<path d="M7940 12889 c-260 -32 -458 -92 -680 -206 -173 -88 -294 -177 -441
-323 -138 -137 -197 -213 -289 -367 -273 -458 -354 -1073 -215 -1637 118 -482
393 -997 810 -1521 726 -912 1891 -1787 2633 -1980 211 -54 465 -28 807 82
899 291 1961 999 2622 1748 124 140 327 405 388 506 32 51 40 59 49 46 6 -8
40 -56 75 -106 88 -127 162 -193 237 -214 81 -22 170 -35 289 -42 184 -11 170
-6 281 -106 54 -50 144 -125 199 -165 146 -109 135 -96 129 -151 -2 -26 -22
-230 -45 -453 -22 -223 -73 -731 -114 -1130 -41 -399 -75 -731 -75 -737 0 -10
-1118 -13 -5572 -13 -6168 0 -5641 6 -5787 -66 -147 -72 -261 -222 -296 -389
-22 -105 -22 -3735 0 -3840 46 -220 220 -394 440 -440 61 -13 896 -15 6615
-15 5719 0 6554 2 6615 15 220 46 394 220 440 440 22 105 22 3735 0 3840 -35
167 -149 317 -296 389 -69 34 -183 65 -238 66 l-24 0 6 688 c8 826 -3 1441
-33 1726 -37 358 -144 1064 -200 1318 -71 320 -308 852 -520 1168 -174 258
-312 393 -655 638 -295 210 -567 364 -737 417 -118 37 -239 33 -376 -12 -84
-28 -98 -30 -160 -22 -83 10 -249 10 -322 -1 l-55 -8 -50 48 c-193 184 -465
344 -737 435 -456 152 -943 148 -1401 -12 -333 -115 -615 -293 -909 -571 -109
-104 -136 -119 -189 -108 -44 9 -66 29 -170 157 -396 486 -915 796 -1499 894
-113 19 -443 28 -550 14z m6395 -911 c220 -63 831 -458 1067 -690 165 -162
313 -375 451 -646 189 -370 296 -668 351 -969 64 -351 137 -851 171 -1173 25
-233 37 -943 30 -1697 l-7 -683 -850 0 -851 0 7 58 c3 31 51 496 106 1032 120
1167 126 1219 133 1226 2 3 49 -17 103 -45 166 -83 293 -128 439 -156 81 -16
115 -4 115 40 0 31 -12 36 -145 69 -193 48 -393 139 -590 271 -125 83 -274
201 -286 228 -5 9 -13 25 -17 35 -5 9 -47 48 -93 85 -101 82 -379 356 -526
519 -58 65 -115 120 -125 124 -23 7 -58 -21 -58 -47 0 -26 110 -150 344 -386
l200 -203 -42 0 c-22 0 -94 7 -159 15 -160 21 -204 43 -276 138 -126 164 -295
475 -317 583 -20 93 16 203 113 352 85 129 126 152 276 152 114 0 144 -21 393
-272 119 -120 221 -218 225 -218 19 0 53 32 53 50 0 46 -415 456 -515 508 -44
23 -62 26 -145 27 -52 0 -116 -4 -141 -8 l-46 -8 -16 78 c-24 113 -38 257 -31
317 15 128 41 156 148 156 125 0 296 -64 391 -145 93 -80 417 -331 459 -356
l38 -22 20 21 c35 34 17 60 -115 163 -228 179 -622 485 -680 529 l-58 43 -132
-21 c-73 -12 -213 -42 -312 -67 -215 -54 -332 -71 -395 -58 -69 13 -65 33 27
122 181 177 423 331 636 403 118 40 237 43 336 9 194 -67 494 -251 895 -549
104 -77 128 -84 154 -44 15 22 13 25 -35 70 -27 26 -119 97 -203 157 -141 101
-390 287 -583 434 l-77 60 -53 -7 c-28 -4 -72 -6 -97 -5 -254 10 -306 1 -504
-87 -61 -28 -124 -50 -141 -50 -42 0 -105 19 -105 31 0 17 108 126 190 192
218 176 483 313 649 336 71 9 118 5 206 -21z m-699 -83 c-49 -31 -118 -77
-153 -102 -75 -54 -83 -50 -83 40 0 64 18 92 67 103 16 3 33 7 38 9 6 2 57 4
114 4 l105 1 -88 -55z m2922 -5915 c148 -19 270 -112 340 -258 l37 -77 0
-1900 0 -1900 -37 -77 c-68 -143 -190 -237 -334 -258 -92 -13 -13020 -13
-13122 0 -148 19 -270 112 -340 258 l-37 77 0 1900 0 1900 37 77 c20 43 58
100 83 127 60 64 166 120 248 130 90 12 13035 13 13125 1z"/>
<path d="M11912 4033 c3 -1681 -3 -1533 79 -1702 107 -218 326 -335 672 -357
l107 -7 0 205 0 205 -66 6 c-133 10 -265 109 -316 235 l-23 57 -3 1428 -2
1427 -225 0 -225 0 2 -1497z"/>
<path d="M4230 3725 l0 -1705 235 0 235 0 0 820 0 820 600 0 600 0 0 205 0
205 -600 0 -600 0 0 465 0 465 820 0 820 0 0 215 0 215 -1055 0 -1055 0 0
-1705z"/>
<path d="M13390 3725 l0 -1705 240 0 240 0 0 1705 0 1705 -240 0 -240 0 0
-1705z"/>
<path d="M14965 5116 l-210 -82 -3 -262 -2 -262 -140 0 -140 0 0 -175 0 -175
139 0 140 0 4 -772 c4 -837 3 -826 60 -968 81 -199 240 -353 430 -417 78 -26
91 -28 267 -27 102 0 226 6 275 12 118 17 249 42 266 53 11 6 7 43 -19 201
-18 106 -35 194 -37 196 -2 2 -17 -4 -33 -12 -47 -24 -191 -63 -262 -70 -36
-4 -98 -2 -139 4 -191 27 -290 124 -337 330 -15 66 -18 159 -21 773 l-5 697
346 0 346 0 0 175 0 175 -345 0 -345 0 0 345 c0 270 -3 345 -12 344 -7 0 -107
-38 -223 -83z"/>
<path d="M7494 4544 c-393 -66 -742 -372 -887 -779 -107 -300 -109 -729 -5
-1025 136 -385 439 -655 841 -747 54 -13 120 -17 267 -16 220 0 353 19 520 73
116 37 281 118 334 163 l40 34 -94 161 c-52 89 -97 162 -102 162 -4 0 -31 -18
-60 -40 -166 -128 -438 -198 -664 -171 -373 44 -610 282 -669 671 -8 52 -15
116 -15 142 l0 48 897 2 897 3 8 30 c36 136 31 380 -13 555 -86 346 -357 615
-712 705 -181 45 -416 57 -583 29z m436 -394 c109 -31 186 -76 266 -155 104
-104 163 -228 179 -379 l7 -66 -686 0 -687 0 6 38 c35 208 161 393 340 498 55
32 164 70 236 83 81 15 252 5 339 -19z"/>
<path d="M10092 4545 c-114 -21 -209 -53 -312 -106 -121 -62 -205 -126 -306
-231 -170 -177 -269 -368 -326 -631 -19 -88 -22 -133 -23 -332 0 -249 10 -327
61 -482 61 -181 136 -304 272 -445 184 -190 385 -295 642 -334 226 -34 531 -2
759 78 144 51 313 145 327 182 5 13 -172 326 -185 326 -3 0 -29 -17 -57 -38
-223 -168 -577 -225 -843 -136 -235 78 -407 268 -471 520 -19 74 -40 217 -40
277 l0 27 899 0 898 0 12 58 c33 159 22 396 -25 561 -99 342 -359 589 -719
680 -166 42 -413 53 -563 26z m413 -390 c225 -58 404 -240 450 -460 8 -38 15
-87 15 -107 l0 -38 -685 0 -684 0 5 33 c22 123 72 239 145 329 114 142 264
230 438 258 75 12 242 4 316 -15z"/>
</g>
</svg>
