<?xml version="1.0" encoding="UTF-8"?>
<svg width="700" height="700" version="1.1" viewBox="0 0 185.21 185.21" xmlns="http://www.w3.org/2000/svg">
<path transform="scale(.26458)" d="m219.73 123.86a184.29 184.29 0 0 0-16.197 0.79688 184.29 184.29 0 0 0-3.2207 0.29297 184.29 184.29 0 0 0-15.551 2.3047 184.29 184.29 0 0 0-2.8066 0.60352 184.29 184.29 0 0 0-14.389 3.6035 184.29 184.29 0 0 0-1.8086 0.50391 184.29 184.29 0 0 0-14.951 5.3516 184.29 184.29 0 0 0-3.1348 1.2969 184.29 184.29 0 0 0-14.371 6.7969 184.29 184.29 0 0 0-1.5996 0.90235 184.29 184.29 0 0 0-12.76 7.6465 184.29 184.29 0 0 0-2.3945 1.5488 184.29 184.29 0 0 0-12.605 9.3477 184.29 184.29 0 0 0-2.541 2.1172 184.29 184.29 0 0 0-11.986 10.865 184.29 184.29 0 0 0-10.463 11.543 184.29 184.29 0 0 0-3.0625 3.7168 184.29 184.29 0 0 0-8.7012 11.732 184.29 184.29 0 0 0-2.668 4.2324 184.29 184.29 0 0 0-5.2773 8.8047 184.29 184.29 0 0 0-3.2363 5.9277 184.29 184.29 0 0 0-5.5195 11.67 184.29 184.29 0 0 0-2.8887 7.3828 184.29 184.29 0 0 0-2.2988 6.418 184.29 184.29 0 0 0-9.6465 63.301 184.29 184.29 0 0 0 0.53711 10.959 184.29 184.29 0 0 0 0.69336 6.4707 184.29 184.29 0 0 0 1.9668 13.256 184.29 184.29 0 0 0 50.564 95.215l137.66 137.66c-25.085 20.349-45.5 44.138-56.764 73.082a349.56 349.56 0 0 0 179.69 49.918 349.56 349.56 0 0 0 174.78-46.832 349.56 349.56 0 0 0 30.199-19.576 349.56 349.56 0 0 0 6.8047-5.0566c0.31786-0.24265 0.63411-0.48861 0.95117-0.73242a349.56 349.56 0 0 0 5.8086-4.5566c0.48181-0.38612 0.96403-0.77155 1.4434-1.1602a349.56 349.56 0 0 0 5.043-4.1738c0.69759-0.5873 1.3951-1.173 2.0879-1.7656a349.56 349.56 0 0 0 4.1973-3.6562c0.8711-0.76955 1.7441-1.5344 2.6074-2.3125a349.56 349.56 0 0 0 3.6055-3.3086c0.96983-0.89884 1.9447-1.7935 2.9043-2.7031a349.56 349.56 0 0 0 3.7773-3.6543c0.76717-0.74963 1.5422-1.4934 2.3027-2.25a349.56 349.56 0 0 0 4.3145-4.3867c0.61746-0.63586 1.245-1.2619 1.8574-1.9023a349.56 349.56 0 0 0 5.8809-6.2949 349.56 349.56 0 0 0 5.9727-6.7363 349.56 349.56 0 0 0 5.7344-6.8144c0.0189-0.02646 0.03491-0.04732 0.0625-0.07227a349.56 349.56 0 0 0 0.29492-0.36914 349.56 349.56 0 0 0 5.3066-6.6504c0.00378-0.00756 0.0082-0.01197 0.01953-0.01953a349.56 349.56 0 0 0 0.04493-0.0586 349.56 349.56 0 0 0 5.3887-7.1133 349.56 349.56 0 0 0 66.607-174.3c0.0189-0.17122 0.02716-0.34258 0.04492-0.51368a349.56 349.56 0 0 0 0.65039-7.9785c0.05292-0.70428 0.08897-1.4118 0.13281-2.1172a349.56 349.56 0 0 0 0.35938-6.4688c0.05291-1.0767 0.08865-2.1551 0.12305-3.2344a349.56 349.56 0 0 0 0.16797-5.5723c0.02645-1.2753 0.03383-2.5534 0.05273-3.832a349.56 349.56 0 0 0 0.01758-4.7207c-0.0189-2.7064-0.05212-5.4095-0.12695-8.1113a349.56 349.56 0 0 0-0.02735-1.0137c-0.56076-17.987-2.5378-35.853-5.834-53.455l0.11133 0.02929a11.271 11.206 15 0 0 0.00195-0.00585 11.271 11.206 15 0 0-2.1133-9.9219c-6.3231-29.094-16.329-57.367-29.906-84.092-1.3109-0.83701-2.6448-1.2172-3.9707-1.166l-0.0039 0.00195c-6.5606 0.25316-12.961 11.025-15.932 28.592-0.30959-0.56035-0.62555-1.118-0.94141-1.6758-0.0122-0.02155-0.0249-0.04291-0.03711-0.06446-1.7188-3.0324-3.533-6.025-5.4375-8.9766-0.17086-0.26492-0.33937-0.53069-0.51172-0.79492-0.50284-0.77056-1.0157-1.5362-1.5312-2.3008-0.27108-0.40222-0.54181-0.80454-0.8164-1.2051-0.47868-0.69789-0.96181-1.3932-1.4512-2.0859-0.34826-0.49321-0.701-0.98407-1.0547-1.4746-0.45391-0.62926-0.90827-1.258-1.3711-1.8828-0.38945-0.52597-0.78782-1.0476-1.1836-1.5703-0.71399-0.94263-1.4373-1.8806-2.1719-2.8125-0.546-0.69298-1.0911-1.3873-1.6484-2.0742-0.40354-0.49713-0.81708-0.98855-1.2266-1.4824-0.50991-0.61521-1.0199-1.2298-1.5391-1.8398-0.45414-0.53352-0.91574-1.0623-1.377-1.5918-0.47502-0.54555-0.95303-1.0896-1.4356-1.6309-0.46655-0.52321-0.93465-1.0453-1.4082-1.5645-0.4734-0.51906-0.95318-1.0339-1.4336-1.5488a184.29 184.29 0 0 0-0.56446-0.60743c-0.30431-0.32323-0.60697-0.64718-0.91406-0.96875-0.85011-0.89029-1.7125-1.7731-2.584-2.6504-0.14699-0.14796-0.28796-0.29967-0.43555-0.44726-2.1602-2.1601-4.3692-4.262-6.623-6.3027-2.2112-2.0022-4.4671-3.9428-6.7637-5.8281-0.00927-0.00761-0.01807-0.01583-0.02734-0.02344-1.2056-0.98926-2.4223-1.9652-3.6504-2.9219h-0.00196c-1.192-0.92858-2.3928-1.8426-3.6055-2.7402h-0.00195c-2.3767-1.7592-4.794-3.4571-7.2461-5.0957-0.00346-0.00231-0.00631-0.00551-0.00977-0.00781a184.29 184.29 0 0 0-0.00586-0.00391c-0.04517-0.03018-0.09153-0.06166-0.13672-0.0918-3.7566-2.5049-7.6004-4.8675-11.52-7.084-2.6126-1.4775-5.2609-2.8916-7.9394-4.2383-1.339-0.67322-2.6845-1.3306-4.0391-1.9707h-0.00196c-1.3546-0.64012-2.7164-1.2643-4.0859-1.8711h-0.00195c-4.1095-1.8208-8.2851-3.4919-12.518-5.0078h-0.00195c-0.48546-0.17387-0.97594-0.3341-1.4629-0.50391-0.92777-0.32351-1.8541-0.65027-2.7871-0.95898-1.4242-0.47124-2.855-0.9248-4.291-1.3613-1.434-0.4359-2.8771-0.85678-4.3223-1.2578-4.3562-1.2089-8.7611-2.2572-13.207-3.1445-0.02854-0.0057-0.0574-0.00995-0.08594-0.01563a184.29 184.29 0 0 0-0.07227-0.01367c-0.7779-0.15454-1.5595-0.29489-2.3398-0.43946-0.62979-0.11668-1.2574-0.24335-1.8887-0.35351h-0.00195c-1.4834-0.25884-2.9715-0.49999-4.4629-0.72266-0.00128-1.9e-4 -0.00264 1.9e-4 -0.00391 0-3.022-0.45113-6.0585-0.82594-9.1094-1.127a184.29 184.29 0 0 0-0.10351-0.00977c-5.9555-0.5842-11.964-0.88278-18-0.88281h-0.00195c-6.0365 5e-5 -12.04 0.29851-17.996 0.88281a184.29 184.29 0 0 0-0.10351 0.00977c-5.9922 0.59128-11.934 1.4743-17.805 2.6406a184.29 184.29 0 0 0-0.07422 0.01563c-5.9063 1.1759-11.743 2.6376-17.486 4.3789a184.29 184.29 0 0 0-0.02929 0.00781c-4.3408 1.3169-8.6281 2.7923-12.855 4.4238-1.3979 0.53951-2.7896 1.0965-4.1738 1.6699-5.5371 2.2936-10.963 4.8564-16.256 7.6816-0.03084 0.01646-0.06097 0.0343-0.0918 0.05078-5.2955 2.8303-10.458 5.9236-15.469 9.2695a184.29 184.29 0 0 0-0.11133 0.07617c-4.9722 3.3254-9.7956 6.8997-14.447 10.717-0.0018 0.00148-0.00406 0.00243-0.00586 0.00391a184.29 184.29 0 0 0-0.00586 0.0039c-4.6434 3.8109-9.1178 7.862-13.402 12.146l-0.18164-0.18164c-0.00296 0.00295-0.00486 0.00681-0.00782 0.00976a184.29 184.29 0 0 0-50.984-35.703 184.29 184.29 0 0 0-1.8359-0.86914 184.29 184.29 0 0 0-28.934-10.584 184.29 184.29 0 0 0-7.1738-1.7949 184.29 184.29 0 0 0-7.9141-1.709 184.29 184.29 0 0 0-12.637-1.875 184.29 184.29 0 0 0-5.3848-0.52149 184.29 184.29 0 0 0-15.26-0.75z"/>
</svg>

