<svg id="svg" version="1.1" xmlns="http://www.w3.org/2000/svg" xmlns:xlink="http://www.w3.org/1999/xlink" width="400" height="400" viewBox="0, 0, 400,400"><g id="svgg"><path id="path0" d="M98.900 61.311 C 68.794 63.951,42.472 80.354,27.994 105.500 C 25.456 109.906,22.094 117.345,20.763 121.500 C 18.138 129.688,16.575 136.804,15.909 143.600 C 15.839 144.315,15.739 145.305,15.688 145.800 C 11.480 186.198,35.642 233.274,82.250 275.485 C 83.213 276.356,84.000 277.142,84.000 277.232 C 84.000 277.322,80.558 277.419,76.350 277.448 C 72.142 277.476,118.873 277.472,180.196 277.438 C 241.519 277.403,291.736 277.331,291.790 277.277 C 291.936 277.131,296.604 231.663,296.596 230.469 C 296.593 229.976,296.274 229.664,294.206 228.130 C 292.894 227.156,290.975 225.571,289.942 224.609 L 288.064 222.858 285.682 222.719 C 278.197 222.280,276.557 221.512,273.593 217.057 C 272.265 215.060,272.435 215.068,271.174 216.950 C 254.142 242.381,212.474 267.616,195.100 263.022 C 178.996 258.764,154.095 239.405,139.763 220.000 C 125.482 200.665,121.396 182.592,127.582 166.123 C 138.680 136.579,178.623 133.420,199.962 160.400 C 203.044 164.297,203.590 164.367,206.855 161.274 C 217.930 150.784,230.809 146.117,244.558 147.611 C 252.993 148.528,262.104 152.654,267.828 158.150 L 268.755 159.041 273.528 159.044 C 278.174 159.046,278.348 159.032,280.100 158.495 C 284.729 157.075,288.540 158.123,296.306 162.950 C 310.006 171.466,315.747 178.046,321.776 192.143 C 324.935 199.531,325.980 203.833,328.081 218.100 C 329.833 229.992,330.000 232.388,330.138 247.577 C 330.227 257.317,330.313 260.549,330.478 260.241 C 330.600 260.013,331.332 259.169,332.105 258.364 C 340.372 249.754,349.283 238.762,356.234 228.600 C 361.980 220.200,372.000 202.097,372.000 200.115 C 372.000 200.058,372.223 199.524,372.496 198.928 C 374.721 194.063,377.906 183.880,379.293 177.200 C 381.841 164.921,381.981 151.398,379.701 137.980 C 370.554 84.161,317.868 51.572,262.380 65.411 C 241.157 70.705,220.112 83.729,205.229 100.782 C 199.517 107.327,196.530 107.314,190.848 100.719 C 189.307 98.930,187.767 97.258,185.578 95.000 C 180.013 89.257,171.965 82.673,165.300 78.411 C 164.200 77.708,162.985 76.929,162.600 76.680 C 158.869 74.271,149.244 69.526,144.791 67.901 C 129.003 62.140,114.008 59.987,98.900 61.311 M282.300 160.299 C 279.904 160.737,277.148 161.936,274.100 163.866 C 270.302 166.271,265.859 170.139,266.340 170.620 C 266.903 171.183,268.251 171.061,269.900 170.298 C 273.832 168.480,276.953 167.787,279.376 168.196 C 280.419 168.372,281.145 168.377,282.177 168.217 C 283.973 167.939,283.685 167.794,288.100 171.193 C 290.190 172.803,293.205 175.055,294.800 176.198 C 301.918 181.300,302.505 181.837,301.982 182.773 C 301.481 183.670,300.720 183.559,299.065 182.349 C 281.944 169.836,278.622 168.672,270.976 172.512 C 266.265 174.878,259.410 180.291,260.168 181.047 C 260.743 181.622,263.654 181.323,268.100 180.234 C 271.978 179.285,276.482 178.400,277.441 178.400 C 277.662 178.400,278.170 178.653,278.571 178.962 C 296.181 192.541,296.186 192.545,294.704 193.516 C 293.890 194.049,293.400 193.731,286.534 188.208 C 282.887 185.275,282.212 184.864,279.579 183.982 C 274.365 182.235,272.771 184.344,274.082 191.258 C 274.601 193.989,274.588 193.971,275.734 193.783 C 279.931 193.093,281.428 193.758,286.214 198.440 C 291.372 203.487,292.213 204.642,291.289 205.409 C 290.430 206.122,290.046 205.852,285.681 201.455 C 280.666 196.403,280.338 196.165,278.222 196.043 C 274.909 195.851,273.671 196.772,271.514 201.035 C 269.747 204.525,269.823 205.340,272.377 210.300 C 276.488 218.285,277.901 219.628,282.795 220.201 C 285.791 220.552,285.864 220.810,281.781 216.649 C 275.065 209.805,274.441 208.959,275.400 208.000 C 276.105 207.295,276.549 207.496,278.165 209.250 C 281.566 212.940,288.004 219.319,289.575 220.555 C 290.593 221.356,291.355 222.123,291.517 222.509 C 292.733 225.421,303.726 231.754,309.900 233.101 C 311.783 233.512,312.243 233.835,312.160 234.688 C 311.991 236.406,307.594 235.609,301.627 232.778 C 298.751 231.414,298.893 231.397,298.740 233.144 C 298.674 233.890,297.850 241.925,296.908 251.000 C 295.966 260.075,294.972 269.648,294.700 272.273 C 294.427 274.898,294.254 277.125,294.314 277.223 C 294.490 277.507,327.544 277.452,327.720 277.168 C 327.977 276.751,327.898 237.003,327.633 233.800 C 326.680 222.265,323.991 205.359,322.273 200.100 C 317.867 186.613,311.491 176.717,303.233 170.548 C 292.746 162.714,286.313 159.564,282.300 160.299 M269.600 161.428 C 268.447 161.744,267.546 163.972,268.366 164.479 C 268.504 164.564,272.694 161.923,273.290 161.375 C 273.546 161.139,270.492 161.183,269.600 161.428 M330.095 272.100 L 330.100 277.500 330.652 277.524 C 331.152 277.546,331.157 277.540,330.706 277.461 L 330.206 277.374 330.148 272.037 L 330.090 266.700 330.095 272.100 M61.793 280.950 L 60.700 282.100 61.850 281.007 C 62.918 279.991,63.092 279.800,62.943 279.800 C 62.912 279.800,62.394 280.318,61.793 280.950 M338.000 280.900 C 338.597 281.505,339.131 282.000,339.186 282.000 C 339.241 282.000,338.797 281.505,338.200 280.900 C 337.603 280.295,337.069 279.800,337.014 279.800 C 336.959 279.800,337.403 280.295,338.000 280.900 M68.273 280.607 C 65.814 281.095,63.570 282.893,62.352 285.350 L 61.500 287.070 61.500 325.100 L 61.500 363.130 62.354 364.853 C 63.628 367.425,65.799 369.118,68.453 369.608 C 69.125 369.732,116.622 369.784,200.701 369.751 L 331.900 369.700 333.000 369.213 C 335.473 368.119,337.072 366.503,338.000 364.162 L 338.500 362.900 338.500 325.100 L 338.500 287.300 338.000 286.038 C 337.069 283.688,335.332 281.966,332.800 280.885 C 331.838 280.473,70.328 280.199,68.273 280.607 M58.498 325.100 C 58.498 345.670,58.521 354.055,58.550 343.734 C 58.579 333.413,58.579 316.583,58.550 306.334 C 58.521 296.085,58.498 304.530,58.498 325.100 M341.498 325.100 C 341.498 345.670,341.521 354.055,341.550 343.734 C 341.579 333.413,341.579 316.583,341.550 306.334 C 341.521 296.085,341.498 304.530,341.498 325.100 M247.247 289.250 C 247.273 289.278,247.341 302.170,247.397 317.900 L 247.500 346.500 247.946 347.600 C 248.907 349.968,251.344 351.854,253.802 352.131 C 255.729 352.349,255.616 352.056,255.554 356.659 L 255.500 360.700 254.700 360.766 C 248.588 361.267,241.821 357.958,239.640 353.400 C 237.976 349.921,238.119 352.992,238.051 319.250 L 237.991 289.200 242.596 289.200 C 245.128 289.200,247.221 289.223,247.247 289.250 M126.760 291.440 C 126.931 291.611,127.000 292.840,127.000 295.700 C 127.000 298.560,126.931 299.789,126.760 299.960 C 126.577 300.143,122.662 300.200,110.360 300.200 L 94.200 300.200 94.200 309.300 L 94.200 318.400 105.886 318.400 C 116.242 318.400,117.607 318.436,117.886 318.714 C 118.292 319.121,118.359 326.361,117.960 326.760 C 117.779 326.941,114.840 327.000,105.961 327.000 L 94.202 327.000 94.151 343.350 L 94.100 359.700 89.300 359.700 L 84.500 359.700 84.449 325.700 C 84.420 307.000,84.440 291.588,84.492 291.450 C 84.628 291.092,126.402 291.082,126.760 291.440 M277.393 291.587 C 277.533 291.849,277.600 302.772,277.600 325.500 C 277.600 348.228,277.533 359.151,277.393 359.413 C 277.104 359.954,267.928 360.021,267.721 359.484 C 267.469 358.825,267.586 291.694,267.840 291.440 C 268.304 290.976,277.139 291.112,277.393 291.587 M304.200 302.717 L 304.300 309.500 310.990 309.553 C 316.036 309.593,317.718 309.666,317.837 309.853 C 317.923 309.989,317.994 311.540,317.994 313.300 C 317.994 315.060,317.923 316.611,317.837 316.747 C 317.718 316.934,316.036 317.007,310.990 317.047 L 304.300 317.100 304.300 330.800 C 304.300 345.727,304.331 346.204,305.481 348.715 C 307.261 352.603,312.076 353.781,317.955 351.767 C 320.274 350.972,320.089 350.748,320.844 355.278 C 321.602 359.826,321.881 359.397,317.700 360.101 C 305.957 362.077,299.237 359.445,296.081 351.631 C 294.932 348.786,294.945 348.985,294.857 332.356 L 294.775 317.011 292.038 316.956 L 289.300 316.900 289.245 313.250 L 289.191 309.600 291.995 309.600 L 294.800 309.600 294.800 304.638 C 294.800 300.977,294.866 299.591,295.050 299.349 C 295.307 299.012,303.541 295.784,303.900 295.880 C 304.026 295.913,304.137 298.449,304.200 302.717 M158.349 308.899 C 168.089 310.283,174.384 316.031,176.314 325.300 C 176.926 328.240,176.699 334.604,175.949 335.550 C 175.793 335.747,171.951 335.800,157.946 335.800 L 140.141 335.800 140.274 337.687 C 140.894 346.510,146.017 351.953,154.409 352.704 C 158.557 353.076,164.234 351.459,167.137 349.080 C 167.615 348.689,168.105 348.402,168.226 348.442 C 168.583 348.561,172.172 354.841,172.056 355.144 C 171.551 356.459,165.742 359.123,161.444 360.010 C 143.403 363.735,130.260 353.161,130.357 335.000 C 130.448 317.821,142.442 306.637,158.349 308.899 M212.100 309.203 C 220.636 311.002,226.484 316.816,228.132 325.142 C 228.769 328.359,228.551 334.595,227.770 335.536 C 227.592 335.751,224.239 335.800,209.755 335.800 L 191.958 335.800 192.096 337.450 C 193.301 351.873,207.238 357.578,219.540 348.683 C 219.782 348.507,220.065 348.417,220.169 348.481 C 220.354 348.595,222.997 353.022,223.700 354.393 L 224.055 355.086 223.226 355.821 C 221.620 357.246,217.702 358.970,214.110 359.832 C 194.467 364.544,180.059 351.418,182.404 330.947 C 184.177 315.475,197.069 306.035,212.100 309.203 M151.500 316.882 C 145.833 317.990,141.502 322.392,140.513 328.050 L 140.382 328.800 153.891 328.800 L 167.400 328.800 167.397 328.250 C 167.350 320.832,159.609 315.296,151.500 316.882 M203.200 316.897 C 197.745 317.985,192.400 323.590,192.400 328.221 L 192.400 328.800 205.800 328.800 L 219.200 328.800 219.200 328.032 C 219.200 320.761,211.320 315.277,203.200 316.897 M61.800 369.300 C 62.397 369.905,62.931 370.400,62.986 370.400 C 63.041 370.400,62.597 369.905,62.000 369.300 C 61.403 368.695,60.869 368.200,60.814 368.200 C 60.759 368.200,61.203 368.695,61.800 369.300 M337.993 369.350 L 336.900 370.500 338.050 369.407 C 338.683 368.806,339.200 368.288,339.200 368.257 C 339.200 368.108,339.009 368.282,337.993 369.350 M134.350 372.750 C 170.458 372.778,229.543 372.778,265.650 372.750 C 301.758 372.722,272.215 372.699,200.000 372.699 C 127.785 372.699,98.243 372.722,134.350 372.750 " stroke="none" fill="#f9e0f1" fill-rule="evenodd"></path><path id="path1" d="M158.200 142.418 C 131.408 145.867,117.793 173.430,129.188 201.150 C 141.036 229.975,182.898 265.477,202.370 263.213 C 223.445 260.763,257.250 237.798,271.108 216.517 L 272.269 214.733 271.911 214.117 C 267.166 205.932,267.122 202.758,271.665 196.691 L 272.672 195.346 272.429 194.023 C 271.653 189.803,271.567 189.013,271.650 186.900 C 271.795 183.192,273.246 181.220,275.838 181.204 C 276.244 181.202,276.632 181.110,276.700 181.000 C 277.039 180.451,273.271 181.091,267.900 182.494 C 260.735 184.366,256.494 183.160,258.227 179.742 C 258.911 178.392,262.826 174.835,265.571 173.070 C 265.610 173.045,265.273 172.673,264.821 172.243 C 263.556 171.040,264.064 168.396,265.766 167.321 C 266.827 166.651,266.826 166.655,266.391 165.394 C 265.516 162.860,266.174 160.653,268.061 159.799 L 268.821 159.455 267.461 158.198 C 254.833 146.534,235.032 144.300,219.000 152.732 C 214.687 155.001,210.889 157.797,206.777 161.732 C 203.651 164.723,202.994 164.606,199.671 160.466 C 189.331 147.583,173.066 140.504,158.200 142.418 " stroke="none" fill="#fba4bc" fill-rule="evenodd"></path><path id="path2" d="M280.500 158.697 C 279.620 158.958,278.692 159.250,278.437 159.345 C 278.183 159.440,277.463 159.454,276.837 159.376 C 273.392 158.945,268.530 159.336,267.436 160.133 C 266.090 161.114,265.660 163.277,266.391 165.394 C 266.826 166.655,266.827 166.651,265.766 167.321 C 264.064 168.396,263.556 171.040,264.821 172.243 C 265.273 172.673,265.610 173.045,265.571 173.070 C 262.826 174.835,258.911 178.392,258.227 179.742 C 256.494 183.160,260.735 184.366,267.900 182.494 C 273.271 181.091,277.039 180.451,276.700 181.000 C 276.632 181.110,276.244 181.202,275.838 181.204 C 273.246 181.220,271.795 183.192,271.650 186.900 C 271.567 189.013,271.653 189.803,272.429 194.023 L 272.672 195.346 271.665 196.691 C 266.952 202.984,267.214 207.126,272.855 215.500 C 276.742 221.271,277.709 221.861,284.000 222.295 C 284.935 222.360,286.272 222.463,286.970 222.524 L 288.240 222.636 290.130 224.398 C 291.170 225.366,293.094 226.956,294.406 227.930 L 296.792 229.700 296.796 230.757 C 296.798 231.339,296.443 235.389,296.006 239.757 C 295.246 247.359,295.050 249.285,293.903 260.400 C 293.625 263.095,293.120 268.000,292.781 271.300 C 292.443 274.600,292.072 277.413,291.958 277.550 C 291.793 277.749,269.239 277.801,180.426 277.803 C 57.336 277.807,67.732 277.690,64.850 279.108 C 61.991 280.515,59.789 283.423,59.101 286.700 C 58.639 288.899,58.654 361.309,59.117 363.558 C 59.925 367.485,62.730 370.540,66.800 371.926 C 68.279 372.429,331.097 372.524,332.900 372.021 C 336.987 370.882,340.303 367.256,340.981 363.184 C 341.373 360.826,341.281 288.576,340.883 286.642 C 339.977 282.234,336.557 278.933,332.000 278.067 C 331.065 277.889,330.191 277.715,330.058 277.681 C 329.870 277.633,329.825 273.253,329.856 258.159 C 329.902 236.004,329.827 233.871,328.688 224.700 C 326.354 205.915,324.575 198.583,319.992 188.870 C 314.469 177.165,309.110 171.358,296.480 163.391 C 288.958 158.646,284.791 157.422,280.500 158.697 M286.093 160.107 C 290.960 161.374,303.228 169.237,308.397 174.401 C 315.990 181.987,322.804 196.678,324.815 209.799 C 324.925 210.515,325.096 211.595,325.197 212.200 C 325.476 213.886,327.151 225.560,327.287 226.769 C 327.773 231.099,327.960 233.431,328.115 237.100 C 328.311 241.733,328.235 277.245,328.029 277.451 C 327.799 277.681,294.219 277.699,293.991 277.469 C 293.853 277.330,294.161 273.895,295.098 265.100 C 295.157 264.550,295.430 261.895,295.705 259.200 C 295.980 256.505,296.381 252.635,296.595 250.600 C 296.810 248.565,297.034 246.401,297.091 245.791 C 297.240 244.226,298.176 235.083,298.299 234.000 C 298.678 230.648,298.335 230.815,301.621 232.381 C 305.794 234.369,310.780 235.797,311.490 235.208 C 312.427 234.431,311.857 233.951,309.200 233.282 C 302.944 231.706,292.411 225.589,291.275 222.872 C 291.110 222.476,290.294 221.653,289.153 220.734 C 287.309 219.246,280.244 212.215,277.815 209.450 C 276.559 208.019,276.110 207.770,275.640 208.240 C 274.973 208.907,275.935 210.115,282.164 216.435 C 286.429 220.764,286.510 220.917,284.425 220.709 C 277.967 220.067,277.655 219.873,274.230 214.386 C 269.883 207.420,269.244 204.888,270.941 201.353 C 273.131 196.788,274.288 195.796,277.560 195.678 C 280.271 195.580,281.256 196.244,286.665 201.815 C 290.191 205.446,290.587 205.729,291.069 204.963 C 291.427 204.395,290.898 203.724,287.036 199.852 C 281.354 194.155,280.827 193.857,276.798 194.060 L 274.424 194.179 274.217 193.540 C 273.353 190.871,273.157 185.580,273.872 184.234 C 275.003 182.108,281.032 183.105,284.355 185.968 C 286.146 187.510,293.250 193.022,293.744 193.252 C 294.259 193.492,294.800 193.166,294.800 192.615 C 294.800 192.135,294.067 191.495,288.900 187.463 C 278.089 179.028,277.778 178.800,277.078 178.800 C 276.125 178.800,272.645 179.494,268.400 180.531 C 263.028 181.843,259.800 181.974,259.800 180.879 C 259.800 178.775,270.390 171.562,275.030 170.507 C 280.047 169.366,285.661 171.923,297.547 180.764 C 300.651 183.073,301.200 183.313,301.671 182.562 C 302.020 182.004,300.597 180.805,294.000 176.095 C 292.625 175.113,289.889 173.067,287.921 171.547 C 283.665 168.260,283.814 168.348,282.746 168.512 C 282.281 168.584,281.315 168.618,280.600 168.588 C 275.852 168.388,274.469 168.649,270.346 170.523 C 268.337 171.436,267.247 171.552,266.150 170.971 C 265.271 170.506,266.927 168.579,270.500 165.911 C 277.122 160.966,282.174 159.086,286.093 160.107 M274.296 160.994 C 274.362 161.101,273.861 161.528,273.182 161.944 C 272.503 162.360,271.217 163.217,270.324 163.848 C 268.488 165.146,268.269 165.207,267.995 164.487 C 267.550 163.316,267.864 161.794,268.635 161.381 C 269.514 160.911,274.053 160.601,274.296 160.994 M332.821 280.555 C 335.428 281.472,337.363 283.371,338.421 286.052 C 338.834 287.099,338.834 287.154,338.833 325.107 L 338.832 363.115 338.284 364.484 C 337.356 366.803,335.153 368.859,332.700 369.695 C 331.762 370.014,323.535 370.035,199.900 370.035 L 68.100 370.035 67.052 369.621 C 64.485 368.608,62.592 366.716,61.582 364.156 L 61.166 363.100 61.165 325.286 C 61.165 284.727,61.116 286.614,62.212 284.686 C 63.738 282.000,66.308 280.393,69.362 280.214 C 75.638 279.845,331.745 280.177,332.821 280.555 M238.440 289.651 C 238.170 289.978,238.150 344.466,238.420 347.387 C 239.188 355.713,244.884 360.394,254.254 360.399 L 255.209 360.400 255.154 356.563 L 255.100 352.726 253.696 352.490 C 251.223 352.074,249.001 350.563,248.013 348.625 C 246.964 346.570,247.000 347.661,247.000 317.579 C 247.000 295.249,246.949 289.623,246.747 289.546 C 246.094 289.295,238.658 289.390,238.440 289.651 M84.741 291.866 C 84.605 292.220,84.587 358.597,84.722 359.050 C 84.818 359.370,85.214 359.400,89.312 359.400 L 93.798 359.400 93.849 343.050 L 93.900 326.700 105.800 326.600 L 117.700 326.500 117.700 322.700 L 117.700 318.900 105.800 318.800 L 93.900 318.700 93.900 309.300 L 93.900 299.900 110.200 299.800 L 126.500 299.700 126.500 295.700 L 126.500 291.700 105.672 291.649 C 88.417 291.607,84.826 291.644,84.741 291.866 M268.137 291.730 C 268.062 291.805,268.000 307.063,268.000 325.637 L 268.000 359.408 272.550 359.354 L 277.100 359.300 277.100 325.500 L 277.100 291.700 272.687 291.646 C 270.260 291.617,268.212 291.654,268.137 291.730 M299.841 297.710 C 297.722 298.525,295.811 299.287,295.594 299.403 C 295.218 299.605,295.200 299.844,295.200 304.707 L 295.200 309.800 292.750 309.830 C 289.922 309.866,289.979 309.861,289.650 310.067 C 289.314 310.277,289.334 316.299,289.671 316.570 C 289.797 316.671,290.620 316.757,291.500 316.760 C 292.380 316.763,293.572 316.774,294.150 316.783 L 295.200 316.800 295.200 331.255 C 295.200 346.774,295.265 348.066,296.187 350.752 C 298.832 358.461,305.620 361.632,316.000 360.006 C 318.804 359.567,320.813 359.140,320.925 358.960 C 321.061 358.740,320.011 351.976,319.805 351.743 C 319.728 351.656,318.818 351.874,317.783 352.227 C 310.761 354.620,305.447 352.208,304.285 346.100 C 303.980 344.499,303.761 317.172,304.051 316.883 C 304.112 316.821,306.992 316.773,310.449 316.775 C 313.907 316.777,316.930 316.729,317.168 316.666 C 317.689 316.530,317.856 310.459,317.350 310.044 C 317.192 309.914,314.724 309.833,310.620 309.823 C 307.056 309.814,304.101 309.768,304.054 309.721 C 304.007 309.673,303.966 306.715,303.964 303.147 C 303.962 299.579,303.900 296.562,303.827 296.443 C 303.740 296.303,302.354 296.743,299.841 297.710 M149.557 309.396 C 136.476 312.154,128.502 325.621,131.082 340.600 C 133.501 354.649,145.383 362.560,160.100 359.921 C 164.961 359.049,171.600 356.158,171.600 354.912 C 171.600 354.511,168.346 349.000,168.109 349.000 C 167.993 349.000,167.449 349.323,166.899 349.717 C 159.081 355.328,147.196 353.766,142.635 346.529 C 140.874 343.736,139.532 338.735,139.833 336.092 L 139.900 335.500 157.800 335.400 L 175.700 335.300 175.974 334.300 C 176.961 330.699,176.027 323.608,174.050 319.700 C 170.051 311.794,159.412 307.318,149.557 309.396 M201.731 309.319 C 179.086 313.411,175.227 349.731,196.496 358.585 C 204.162 361.777,217.382 360.325,222.749 355.702 C 223.734 354.854,223.855 355.309,221.642 351.550 C 219.951 348.678,220.079 348.763,218.827 349.676 C 213.680 353.430,205.057 354.138,199.554 351.259 C 194.941 348.845,191.999 343.501,191.760 337.100 L 191.700 335.500 209.634 335.449 L 227.567 335.398 227.802 334.349 C 229.071 328.689,227.504 321.358,224.060 316.845 C 219.495 310.861,210.316 307.768,201.731 309.319 M158.531 316.808 C 163.659 318.119,167.393 322.592,167.634 327.711 L 167.700 329.100 153.900 329.100 L 140.100 329.100 140.166 328.200 C 140.748 320.221,149.836 314.584,158.531 316.808 M210.200 316.733 C 215.538 318.056,219.964 323.566,219.560 328.385 L 219.500 329.100 205.750 329.151 L 192.000 329.203 192.000 328.543 C 192.000 325.196,195.168 320.276,198.637 318.236 C 201.848 316.347,206.306 315.768,210.200 316.733 " stroke="none" fill="#b49cbc" fill-rule="evenodd"></path><path id="path3" d="M102.700 53.324 C 46.229 57.026,7.695 98.512,7.703 155.600 C 7.708 191.351,27.030 230.535,62.728 267.193 C 64.779 269.299,65.939 270.630,65.771 270.686 C 65.622 270.735,64.780 270.966,63.900 271.199 C 58.124 272.728,53.439 277.889,51.735 284.600 L 51.100 287.100 51.100 325.100 L 51.100 363.100 51.739 365.619 C 53.575 372.860,58.048 377.449,65.126 379.354 L 67.900 380.100 200.000 380.100 L 332.100 380.100 334.874 379.354 C 341.909 377.461,346.323 372.972,348.246 365.752 L 348.900 363.300 348.900 325.100 L 348.900 286.900 348.246 284.448 C 347.309 280.929,346.400 279.144,344.118 276.341 C 343.384 275.438,340.370 273.118,338.750 272.208 L 337.600 271.562 337.600 267.663 L 337.600 263.765 339.778 261.433 C 373.973 224.819,391.211 185.577,388.815 149.800 C 385.423 99.155,351.698 62.635,301.743 55.512 C 265.330 50.319,224.633 66.377,199.223 95.962 C 197.947 97.448,198.170 97.486,196.500 95.500 C 185.304 82.181,167.915 69.328,151.900 62.533 C 136.639 56.058,117.020 52.386,102.700 53.324 M114.600 61.201 C 125.198 61.988,133.845 63.907,144.791 67.901 C 149.244 69.526,158.869 74.271,162.600 76.680 C 162.985 76.929,164.200 77.708,165.300 78.411 C 171.965 82.673,180.013 89.257,185.578 95.000 C 187.767 97.258,189.307 98.930,190.848 100.719 C 196.530 107.314,199.517 107.327,205.229 100.782 C 229.972 72.431,267.119 58.109,302.400 63.319 C 342.649 69.263,373.005 98.582,379.701 137.980 C 381.981 151.398,381.841 164.921,379.293 177.200 C 377.906 183.880,374.721 194.063,372.496 198.928 C 372.223 199.524,372.000 200.058,372.000 200.115 C 372.000 202.097,361.980 220.200,356.234 228.600 C 349.283 238.762,340.372 249.754,332.105 258.364 C 330.056 260.498,330.215 259.605,330.207 269.008 L 330.200 277.317 331.905 277.639 C 336.723 278.548,340.302 282.003,341.298 286.706 C 341.741 288.799,341.742 361.389,341.299 363.500 C 340.361 367.967,336.767 371.561,332.300 372.499 C 330.179 372.944,69.821 372.944,67.700 372.499 C 63.233 371.561,59.639 367.967,58.701 363.500 C 58.258 361.389,58.259 288.799,58.702 286.706 C 59.658 282.193,63.203 278.645,67.700 277.701 C 68.785 277.473,70.775 277.406,76.550 277.403 C 80.648 277.402,84.000 277.326,84.000 277.235 C 84.000 277.144,83.213 276.356,82.250 275.485 C 35.642 233.274,11.480 186.198,15.688 145.800 C 15.739 145.305,15.839 144.315,15.909 143.600 C 16.575 136.804,18.138 129.688,20.763 121.500 C 22.731 115.360,26.945 106.766,30.864 100.900 C 45.328 79.248,67.237 65.783,94.500 61.791 C 99.445 61.067,109.009 60.786,114.600 61.201 " stroke="none" fill="#fbfbfb" fill-rule="evenodd"></path><path id="path4" d="M283.350 157.945 C 283.707 157.989,284.293 157.989,284.650 157.945 C 285.007 157.900,284.715 157.864,284.000 157.864 C 283.285 157.864,282.993 157.900,283.350 157.945 M270.050 159.138 C 270.243 159.188,270.558 159.188,270.750 159.138 C 270.943 159.088,270.785 159.046,270.400 159.046 C 270.015 159.046,269.858 159.088,270.050 159.138 M275.752 159.141 C 276.001 159.189,276.361 159.187,276.552 159.137 C 276.744 159.087,276.540 159.048,276.100 159.050 C 275.660 159.053,275.504 159.094,275.752 159.141 M282.448 160.022 C 278.168 160.735,271.157 164.845,267.031 169.060 C 264.955 171.179,266.862 171.981,270.262 170.418 C 274.071 168.666,277.079 167.999,279.369 168.397 C 280.538 168.601,282.480 168.545,283.424 168.281 C 283.623 168.225,285.314 169.392,287.824 171.319 C 290.066 173.040,293.542 175.621,295.549 177.055 C 301.602 181.380,302.378 182.142,301.560 182.960 C 301.103 183.417,300.613 183.192,298.262 181.440 C 286.653 172.790,280.441 169.664,276.293 170.386 C 271.793 171.170,264.781 175.294,260.836 179.477 C 258.524 181.929,261.082 182.241,268.399 180.399 C 271.567 179.602,274.913 178.918,276.700 178.702 L 277.700 178.581 285.294 184.490 C 295.769 192.642,295.553 192.437,294.608 193.293 C 294.055 193.794,290.651 191.422,284.445 186.210 C 281.602 183.823,276.102 182.375,274.541 183.603 C 273.416 184.488,273.171 188.040,273.969 191.880 C 274.469 194.287,274.439 194.254,275.911 193.978 C 279.377 193.329,281.027 193.969,284.768 197.416 C 289.600 201.868,291.794 204.526,291.160 205.160 C 290.515 205.805,290.027 205.441,285.743 201.129 C 280.559 195.912,280.209 195.693,277.311 195.844 C 274.386 195.997,273.357 196.853,271.322 200.824 C 269.547 204.289,269.623 205.455,271.923 210.008 C 274.731 215.563,277.462 219.258,279.130 219.756 C 280.888 220.281,285.800 220.808,285.800 220.471 C 285.800 220.400,284.021 218.532,281.847 216.321 C 275.441 209.805,274.658 208.764,275.672 208.100 C 276.346 207.658,276.525 207.781,278.661 210.160 C 281.446 213.261,287.639 219.364,289.500 220.841 C 290.448 221.594,291.235 222.397,291.432 222.814 C 292.814 225.741,303.363 231.802,309.678 233.298 C 311.606 233.755,311.991 233.973,311.997 234.610 C 312.013 236.189,307.481 235.279,301.764 232.555 C 298.756 231.122,298.699 231.129,298.541 232.932 C 298.475 233.684,297.423 243.923,296.202 255.684 C 294.982 267.445,294.029 277.187,294.085 277.334 C 294.204 277.643,327.691 277.739,327.881 277.430 C 328.451 276.509,328.124 235.605,327.501 229.900 C 326.092 216.982,323.959 204.472,322.325 199.544 C 319.685 191.580,315.123 182.668,311.061 177.540 C 305.397 170.391,288.301 159.322,283.700 159.825 C 283.590 159.837,283.026 159.926,282.448 160.022 M290.617 159.875 C 290.822 160.059,292.000 160.600,292.000 160.510 C 292.000 160.395,290.891 159.800,290.677 159.800 C 290.598 159.800,290.571 159.834,290.617 159.875 M286.072 160.434 C 290.545 161.556,303.082 169.671,308.105 174.695 C 313.428 180.020,318.944 189.910,322.273 200.100 C 323.991 205.359,326.680 222.265,327.633 233.800 C 327.898 237.003,327.977 276.751,327.720 277.168 C 327.544 277.452,294.490 277.507,294.314 277.223 C 294.254 277.125,294.427 274.898,294.700 272.273 C 294.972 269.648,295.966 260.075,296.908 251.000 C 297.850 241.925,298.674 233.890,298.740 233.144 C 298.893 231.397,298.751 231.414,301.627 232.778 C 307.594 235.609,311.991 236.406,312.160 234.688 C 312.243 233.835,311.783 233.512,309.900 233.101 C 303.726 231.754,292.733 225.421,291.517 222.509 C 291.355 222.123,290.593 221.356,289.575 220.555 C 288.004 219.319,281.566 212.940,278.165 209.250 C 276.549 207.496,276.105 207.295,275.400 208.000 C 274.441 208.959,275.065 209.805,281.781 216.649 C 285.864 220.810,285.791 220.552,282.795 220.201 C 277.901 219.628,276.488 218.285,272.377 210.300 C 269.823 205.340,269.747 204.525,271.514 201.035 C 273.671 196.772,274.909 195.851,278.222 196.043 C 280.338 196.165,280.666 196.403,285.681 201.455 C 290.046 205.852,290.430 206.122,291.289 205.409 C 292.213 204.642,291.372 203.487,286.214 198.440 C 281.428 193.758,279.931 193.093,275.734 193.783 C 274.588 193.971,274.601 193.989,274.082 191.258 C 272.771 184.344,274.365 182.235,279.579 183.982 C 282.212 184.864,282.887 185.275,286.534 188.208 C 293.400 193.731,293.890 194.049,294.704 193.516 C 296.186 192.545,296.181 192.541,278.571 178.962 C 278.170 178.653,277.662 178.400,277.441 178.400 C 276.482 178.400,271.978 179.285,268.100 180.234 C 263.654 181.323,260.743 181.622,260.168 181.047 C 259.410 180.291,266.265 174.878,270.976 172.512 C 278.622 168.672,281.944 169.836,299.065 182.349 C 300.720 183.559,301.481 183.670,301.982 182.773 C 302.505 181.837,301.918 181.300,294.800 176.198 C 293.205 175.055,290.190 172.803,288.100 171.193 C 283.685 167.794,283.973 167.939,282.177 168.217 C 281.145 168.377,280.419 168.372,279.376 168.196 C 276.953 167.787,273.832 168.480,269.900 170.298 C 268.251 171.061,266.903 171.183,266.340 170.620 C 265.859 170.139,270.302 166.271,274.100 163.866 C 279.112 160.693,282.842 159.623,286.072 160.434 M269.303 161.301 C 268.103 161.729,267.407 163.927,268.216 164.736 C 268.428 164.948,273.965 161.509,273.990 161.150 C 274.008 160.879,270.137 161.004,269.303 161.301 M273.290 161.375 C 272.694 161.923,268.504 164.564,268.366 164.479 C 267.546 163.972,268.447 161.744,269.600 161.428 C 270.492 161.183,273.546 161.139,273.290 161.375 M308.200 171.700 C 308.573 172.085,308.923 172.400,308.978 172.400 C 309.033 172.400,308.773 172.085,308.400 171.700 C 308.027 171.315,307.677 171.000,307.622 171.000 C 307.567 171.000,307.827 171.315,308.200 171.700 M310.800 174.263 C 310.800 174.297,311.093 174.590,311.450 174.913 L 312.100 175.500 311.513 174.850 C 310.965 174.244,310.800 174.108,310.800 174.263 M275.900 220.000 C 276.442 220.550,276.930 221.000,276.985 221.000 C 277.040 221.000,276.642 220.550,276.100 220.000 C 275.558 219.450,275.070 219.000,275.015 219.000 C 274.960 219.000,275.358 219.450,275.900 220.000 M283.050 222.538 C 283.243 222.588,283.558 222.588,283.750 222.538 C 283.943 222.488,283.785 222.446,283.400 222.446 C 283.015 222.446,282.858 222.488,283.050 222.538 M285.954 222.745 C 286.313 222.789,286.853 222.789,287.154 222.743 C 287.454 222.697,287.160 222.661,286.500 222.662 C 285.840 222.663,285.594 222.700,285.954 222.745 M289.900 224.600 C 290.442 225.150,290.930 225.600,290.985 225.600 C 291.040 225.600,290.642 225.150,290.100 224.600 C 289.558 224.050,289.070 223.600,289.015 223.600 C 288.960 223.600,289.358 224.050,289.900 224.600 M329.446 229.600 C 329.446 229.985,329.488 230.143,329.538 229.950 C 329.588 229.757,329.588 229.443,329.538 229.250 C 329.488 229.058,329.446 229.215,329.446 229.600 M329.646 231.800 C 329.646 232.185,329.688 232.343,329.738 232.150 C 329.788 231.957,329.788 231.643,329.738 231.450 C 329.688 231.257,329.646 231.415,329.646 231.800 M296.446 232.400 C 296.446 232.785,296.488 232.943,296.538 232.750 C 296.588 232.558,296.588 232.243,296.538 232.050 C 296.488 231.857,296.446 232.015,296.446 232.400 M329.866 235.100 C 329.867 235.870,329.903 236.160,329.946 235.746 C 329.989 235.331,329.989 234.701,329.944 234.346 C 329.900 233.990,329.865 234.330,329.866 235.100 M296.246 234.600 C 296.246 234.985,296.288 235.143,296.338 234.950 C 296.388 234.757,296.388 234.443,296.338 234.250 C 296.288 234.058,296.246 234.215,296.246 234.600 M296.046 236.600 C 296.046 236.985,296.088 237.143,296.138 236.950 C 296.188 236.757,296.188 236.443,296.138 236.250 C 296.088 236.058,296.046 236.215,296.046 236.600 M295.846 238.600 C 295.846 238.985,295.888 239.143,295.938 238.950 C 295.988 238.757,295.988 238.443,295.938 238.250 C 295.888 238.058,295.846 238.215,295.846 238.600 M330.084 243.700 C 330.084 245.900,330.113 246.827,330.149 245.761 C 330.185 244.694,330.185 242.894,330.149 241.761 C 330.114 240.627,330.084 241.500,330.084 243.700 M295.646 240.600 C 295.646 240.985,295.688 241.143,295.738 240.950 C 295.788 240.757,295.788 240.443,295.738 240.250 C 295.688 240.058,295.646 240.215,295.646 240.600 M295.446 242.600 C 295.446 242.985,295.488 243.143,295.538 242.950 C 295.588 242.757,295.588 242.443,295.538 242.250 C 295.488 242.058,295.446 242.215,295.446 242.600 M295.246 244.600 C 295.246 244.985,295.288 245.143,295.338 244.950 C 295.388 244.757,295.388 244.443,295.338 244.250 C 295.288 244.058,295.246 244.215,295.246 244.600 M294.646 250.400 C 294.646 250.785,294.688 250.943,294.738 250.750 C 294.788 250.558,294.788 250.243,294.738 250.050 C 294.688 249.857,294.646 250.015,294.646 250.400 M294.446 252.400 C 294.446 252.785,294.488 252.943,294.538 252.750 C 294.588 252.558,294.588 252.243,294.538 252.050 C 294.488 251.857,294.446 252.015,294.446 252.400 M293.846 258.200 C 293.846 258.585,293.888 258.743,293.938 258.550 C 293.988 258.358,293.988 258.043,293.938 257.850 C 293.888 257.657,293.846 257.815,293.846 258.200 M330.081 263.700 C 330.081 265.460,330.112 266.153,330.149 265.241 C 330.186 264.328,330.186 262.888,330.148 262.041 C 330.111 261.193,330.081 261.940,330.081 263.700 M292.646 269.800 C 292.646 270.185,292.688 270.343,292.738 270.150 C 292.788 269.957,292.788 269.643,292.738 269.450 C 292.688 269.257,292.646 269.415,292.646 269.800 M291.800 277.167 C 291.800 277.344,266.912 277.412,187.950 277.450 L 84.100 277.500 187.890 277.550 C 286.941 277.598,292.439 277.573,291.937 277.070 C 291.861 276.995,291.800 277.038,291.800 277.167 M68.162 280.389 C 65.780 280.854,63.120 283.058,61.943 285.542 L 61.300 286.900 61.300 325.100 L 61.300 363.300 61.943 364.658 C 62.849 366.570,64.492 368.234,66.393 369.163 L 67.900 369.900 200.000 369.900 L 332.100 369.900 333.607 369.163 C 335.508 368.234,337.151 366.570,338.057 364.658 L 338.700 363.300 338.700 325.100 L 338.700 286.900 338.057 285.542 C 337.151 283.630,335.508 281.966,333.607 281.037 L 332.100 280.300 200.500 280.273 C 128.120 280.257,68.568 280.310,68.162 280.389 M332.800 280.885 C 335.332 281.966,337.069 283.688,338.000 286.038 L 338.500 287.300 338.500 325.100 L 338.500 362.900 338.000 364.162 C 337.072 366.503,335.473 368.119,333.000 369.213 L 331.900 369.700 200.701 369.751 C 116.622 369.784,69.125 369.732,68.453 369.608 C 65.799 369.118,63.628 367.425,62.354 364.853 L 61.500 363.130 61.500 325.100 L 61.500 287.070 62.352 285.350 C 63.570 282.893,65.814 281.095,68.273 280.607 C 70.328 280.199,331.838 280.473,332.800 280.885 M238.051 319.250 C 238.119 352.992,237.976 349.921,239.640 353.400 C 241.821 357.958,248.588 361.267,254.700 360.766 L 255.500 360.700 255.554 356.659 C 255.616 352.056,255.729 352.349,253.802 352.131 C 251.344 351.854,248.907 349.968,247.946 347.600 L 247.500 346.500 247.397 317.900 C 247.341 302.170,247.273 289.278,247.247 289.250 C 247.221 289.223,245.128 289.200,242.596 289.200 L 237.991 289.200 238.051 319.250 M247.045 317.650 L 247.100 345.900 247.562 347.200 C 248.683 350.354,250.778 351.945,254.550 352.508 L 255.400 352.635 255.400 356.506 C 255.400 361.030,255.650 360.674,252.655 360.409 C 244.861 359.721,240.654 356.750,238.766 350.600 L 238.306 349.100 238.248 319.250 L 238.190 289.400 242.590 289.400 L 246.989 289.400 247.045 317.650 M84.492 291.450 C 84.440 291.588,84.420 307.000,84.449 325.700 L 84.500 359.700 89.300 359.700 L 94.100 359.700 94.151 343.350 L 94.202 327.000 105.961 327.000 C 114.840 327.000,117.779 326.941,117.960 326.760 C 118.359 326.361,118.292 319.121,117.886 318.714 C 117.607 318.436,116.242 318.400,105.886 318.400 L 94.200 318.400 94.200 309.300 L 94.200 300.200 110.360 300.200 C 122.662 300.200,126.577 300.143,126.760 299.960 C 126.931 299.789,127.000 298.560,127.000 295.700 C 127.000 292.840,126.931 291.611,126.760 291.440 C 126.402 291.082,84.628 291.092,84.492 291.450 M267.840 291.440 C 267.586 291.694,267.469 358.825,267.721 359.484 C 267.928 360.021,277.104 359.954,277.393 359.413 C 277.533 359.151,277.600 348.228,277.600 325.500 C 277.600 302.772,277.533 291.849,277.393 291.587 C 277.139 291.112,268.304 290.976,267.840 291.440 M126.500 295.700 L 126.500 299.900 110.248 299.951 L 93.996 300.002 94.048 309.351 L 94.100 318.700 105.954 318.752 L 117.808 318.803 117.754 322.752 L 117.700 326.700 105.851 326.752 L 94.002 326.803 93.951 343.152 L 93.900 359.500 89.300 359.500 L 84.700 359.500 84.649 325.700 C 84.620 307.110,84.640 291.787,84.693 291.649 C 84.769 291.450,89.065 291.409,105.644 291.449 L 126.500 291.500 126.500 295.700 M277.151 325.554 L 277.201 359.607 272.551 359.554 L 267.900 359.500 267.849 325.721 C 267.812 300.649,267.858 291.872,268.027 291.667 C 268.211 291.446,269.120 291.403,272.678 291.446 L 277.100 291.500 277.151 325.554 M299.500 297.424 C 297.190 298.302,295.188 299.168,295.050 299.349 C 294.866 299.591,294.800 300.977,294.800 304.638 L 294.800 309.600 291.995 309.600 L 289.191 309.600 289.245 313.250 L 289.300 316.900 292.038 316.956 L 294.775 317.011 294.857 332.356 C 294.945 348.985,294.932 348.786,296.081 351.631 C 299.237 359.445,305.957 362.077,317.700 360.101 C 321.881 359.397,321.602 359.826,320.844 355.278 C 320.089 350.748,320.274 350.972,317.955 351.767 C 312.076 353.781,307.261 352.603,305.481 348.715 C 304.331 346.204,304.300 345.727,304.300 330.800 L 304.300 317.100 310.990 317.047 C 316.036 317.007,317.718 316.934,317.837 316.747 C 317.923 316.611,317.994 315.060,317.994 313.300 C 317.994 311.540,317.923 309.989,317.837 309.853 C 317.718 309.666,316.036 309.593,310.990 309.553 L 304.300 309.500 304.200 302.717 C 304.137 298.449,304.026 295.913,303.900 295.880 C 303.790 295.850,301.810 296.545,299.500 297.424 M304.047 303.007 L 304.100 309.700 310.850 309.753 L 317.600 309.805 317.600 313.300 L 317.600 316.795 310.850 316.847 L 304.100 316.900 304.100 330.700 C 304.100 345.510,304.130 346.021,305.133 348.528 C 306.807 352.710,312.146 354.132,318.092 351.980 C 320.184 351.223,319.860 350.809,320.598 355.187 C 321.313 359.431,321.419 359.126,319.068 359.605 C 307.408 361.982,300.377 359.821,296.934 352.800 C 295.221 349.307,295.324 350.499,295.205 332.700 L 295.100 316.900 292.250 316.845 L 289.400 316.789 289.400 313.300 L 289.400 309.811 292.250 309.755 L 295.100 309.700 295.200 304.505 L 295.300 299.309 299.500 297.682 C 301.810 296.788,303.766 296.114,303.847 296.185 C 303.928 296.256,304.018 299.326,304.047 303.007 M150.184 308.896 C 127.531 312.713,122.610 348.065,143.300 358.355 C 151.104 362.236,164.440 361.164,171.025 356.128 C 172.339 355.122,172.349 355.188,170.304 351.691 C 168.175 348.051,168.284 348.141,167.137 349.080 C 164.234 351.459,158.557 353.076,154.409 352.704 C 146.017 351.953,140.894 346.510,140.274 337.687 L 140.141 335.800 157.946 335.800 C 171.951 335.800,175.793 335.747,175.949 335.550 C 177.101 334.096,176.877 326.486,175.562 322.400 C 172.454 312.744,161.607 306.972,150.184 308.896 M201.946 308.888 C 191.473 310.743,183.716 319.500,182.404 330.947 C 180.059 351.418,194.467 364.544,214.110 359.832 C 217.702 358.970,221.620 357.246,223.226 355.821 L 224.055 355.086 223.700 354.393 C 222.997 353.022,220.354 348.595,220.169 348.481 C 220.065 348.417,219.782 348.507,219.540 348.683 C 216.001 351.242,213.470 352.228,209.426 352.624 C 199.552 353.590,192.963 347.820,192.096 337.450 L 191.958 335.800 209.755 335.800 C 224.239 335.800,227.592 335.751,227.770 335.536 C 229.037 334.009,228.688 325.841,227.180 321.742 C 223.756 312.436,212.960 306.937,201.946 308.888 M157.358 309.011 C 166.950 310.051,173.535 315.414,175.801 324.032 C 176.588 327.023,176.558 334.366,175.755 335.350 C 175.595 335.547,171.748 335.600,157.745 335.600 L 139.940 335.600 140.061 337.650 C 140.423 343.756,143.521 349.062,148.000 351.247 C 153.759 354.057,161.800 353.317,167.000 349.500 C 168.299 348.547,168.154 348.439,170.102 351.803 C 172.003 355.086,172.005 355.102,170.759 356.011 C 165.411 359.913,154.622 361.632,147.500 359.716 C 138.725 357.355,132.374 349.863,130.871 340.100 C 128.038 321.683,140.400 307.172,157.358 309.011 M209.242 309.022 C 219.278 310.102,226.173 316.079,227.881 325.178 C 228.503 328.492,228.457 332.836,227.778 334.950 L 227.569 335.600 209.655 335.600 L 191.740 335.600 191.868 337.397 C 192.334 343.964,195.076 348.730,199.803 351.190 C 205.158 353.976,212.916 353.425,218.207 349.883 C 219.115 349.276,219.957 348.818,220.078 348.867 C 220.390 348.990,223.601 354.553,223.597 354.963 C 223.586 356.155,217.831 358.820,213.154 359.799 C 195.030 363.594,181.769 352.405,182.458 333.900 C 183.057 317.784,194.231 307.405,209.242 309.022 M151.200 316.697 C 145.591 317.816,140.200 323.665,140.200 328.632 C 140.200 328.986,140.730 329.000,153.900 329.000 L 167.600 329.000 167.597 328.250 C 167.561 320.511,159.731 314.995,151.200 316.697 M202.900 316.707 C 197.485 317.874,192.970 322.658,192.100 328.150 L 191.965 329.000 205.711 329.000 L 219.458 329.000 219.347 327.531 C 218.774 319.965,211.129 314.934,202.900 316.707 M158.300 317.093 C 163.386 318.418,167.365 323.298,167.397 328.250 L 167.400 328.800 153.891 328.800 L 140.382 328.800 140.513 328.050 C 141.927 319.967,150.071 314.950,158.300 317.093 M209.124 316.909 C 214.690 317.875,219.200 322.854,219.200 328.032 L 219.200 328.800 205.800 328.800 L 192.400 328.800 192.400 328.221 C 192.400 326.356,193.991 323.066,195.858 321.070 C 199.310 317.379,203.774 315.979,209.124 316.909 " stroke="none" fill="#e7c1e2" fill-rule="evenodd"></path><path id="path5" d="M159.565 141.996 C 131.728 144.701,117.262 172.644,128.905 201.222 C 138.963 225.912,172.238 256.977,195.100 263.022 C 210.127 266.995,247.113 246.781,265.403 224.600 C 268.126 221.298,272.400 215.488,272.400 215.089 C 272.400 214.709,271.928 215.224,271.149 216.453 C 255.528 241.113,212.723 267.184,195.180 262.724 C 182.260 259.440,161.944 245.063,147.522 229.000 C 125.941 204.963,119.774 181.999,129.609 162.300 C 142.578 136.327,179.521 135.360,199.671 160.466 C 202.994 164.606,203.651 164.723,206.777 161.732 C 224.992 144.303,250.782 142.788,267.431 158.171 C 268.931 159.557,269.495 159.828,268.291 158.583 C 262.966 153.083,253.149 148.545,244.558 147.611 C 230.809 146.117,217.930 150.784,206.855 161.274 C 203.590 164.367,203.044 164.297,199.962 160.400 C 190.023 147.834,174.107 140.583,159.565 141.996 " stroke="none" fill="#fcccd4" fill-rule="evenodd"></path><path id="path6" d="M284.200 158.213 C 285.355 158.295,286.525 158.414,286.800 158.478 C 287.075 158.541,286.940 158.467,286.500 158.312 C 286.022 158.144,284.976 158.037,283.900 158.047 L 282.100 158.064 284.200 158.213 M279.700 158.729 C 278.820 159.009,278.020 159.314,277.922 159.407 C 277.824 159.500,278.544 159.320,279.522 159.008 C 280.500 158.696,281.480 158.397,281.700 158.344 L 282.100 158.246 281.700 158.233 C 281.480 158.225,280.580 158.448,279.700 158.729 M272.050 159.148 C 272.683 159.187,273.718 159.187,274.350 159.148 C 274.983 159.108,274.465 159.076,273.200 159.076 C 271.935 159.076,271.418 159.108,272.050 159.148 M276.352 159.341 C 276.601 159.389,276.961 159.387,277.152 159.337 C 277.344 159.287,277.140 159.248,276.700 159.250 C 276.260 159.253,276.104 159.294,276.352 159.341 M291.700 160.664 C 300.297 165.133,309.286 172.122,313.226 177.400 C 317.398 182.988,322.726 193.758,324.393 199.970 C 324.521 200.449,324.673 200.794,324.730 200.737 C 325.240 200.227,320.360 188.716,317.507 183.700 C 312.899 175.596,309.346 171.919,299.800 165.371 C 295.996 162.762,289.763 159.185,289.054 159.204 C 288.969 159.207,290.160 159.863,291.700 160.664 M272.550 160.944 C 274.090 161.022,274.204 161.085,273.650 161.550 C 273.337 161.812,273.349 161.815,273.763 161.572 C 274.613 161.073,274.346 160.900,272.700 160.885 L 271.100 160.870 272.550 160.944 M268.445 161.511 C 268.200 161.683,268.000 161.925,268.000 162.050 C 268.000 162.174,268.113 162.135,268.250 161.963 C 268.387 161.791,268.680 161.551,268.900 161.431 C 269.120 161.311,269.208 161.209,269.095 161.206 C 268.981 161.203,268.689 161.340,268.445 161.511 M267.857 163.300 C 267.859 163.850,267.898 164.051,267.944 163.747 C 267.989 163.443,267.988 162.993,267.941 162.747 C 267.893 162.501,267.856 162.750,267.857 163.300 M267.853 168.150 C 266.092 169.872,266.285 169.709,269.494 166.762 C 269.711 166.563,269.834 166.400,269.766 166.400 C 269.698 166.400,268.838 167.188,267.853 168.150 M298.400 166.673 C 298.400 166.728,298.670 166.965,299.000 167.200 C 299.330 167.435,299.600 167.582,299.600 167.527 C 299.600 167.472,299.330 167.235,299.000 167.000 C 298.670 166.765,298.400 166.618,298.400 166.673 M277.550 168.341 C 277.798 168.389,278.203 168.389,278.450 168.341 C 278.697 168.293,278.495 168.254,278.000 168.254 C 277.505 168.254,277.303 168.293,277.550 168.341 M283.417 168.261 C 283.463 168.294,283.770 168.479,284.100 168.672 L 284.700 169.024 284.228 168.612 C 283.968 168.385,283.661 168.200,283.545 168.200 C 283.428 168.200,283.371 168.227,283.417 168.261 M302.600 169.664 C 302.600 169.712,303.118 170.140,303.750 170.615 C 304.382 171.090,304.792 171.344,304.659 171.179 C 304.387 170.843,302.600 169.527,302.600 169.664 M269.600 170.700 C 269.325 170.857,269.190 170.986,269.300 170.986 C 269.410 170.986,269.725 170.857,270.000 170.700 C 270.275 170.543,270.410 170.414,270.300 170.414 C 270.190 170.414,269.875 170.543,269.600 170.700 M283.000 171.700 C 283.275 171.857,283.590 171.986,283.700 171.986 C 283.810 171.986,283.675 171.857,283.400 171.700 C 283.125 171.543,282.810 171.414,282.700 171.414 C 282.590 171.414,282.725 171.543,283.000 171.700 M305.000 171.445 C 305.000 171.488,305.518 171.964,306.150 172.502 C 306.782 173.040,307.120 173.272,306.900 173.018 C 306.482 172.535,305.000 171.308,305.000 171.445 M284.400 172.290 C 284.400 172.345,284.670 172.529,285.000 172.700 C 285.330 172.871,285.600 172.965,285.600 172.910 C 285.600 172.855,285.330 172.671,285.000 172.500 C 284.670 172.329,284.400 172.235,284.400 172.290 M308.300 174.400 C 308.842 174.950,309.330 175.400,309.385 175.400 C 309.440 175.400,309.042 174.950,308.500 174.400 C 307.958 173.850,307.470 173.400,307.415 173.400 C 307.360 173.400,307.758 173.850,308.300 174.400 M290.872 173.754 C 291.030 174.010,292.200 174.876,292.200 174.737 C 292.200 174.688,291.870 174.395,291.466 174.087 C 291.062 173.779,290.795 173.630,290.872 173.754 M265.300 175.518 L 264.700 176.033 265.350 175.603 C 265.707 175.366,266.000 175.134,266.000 175.086 C 266.000 174.937,265.915 174.989,265.300 175.518 M310.000 176.300 C 310.373 176.685,310.723 177.000,310.778 177.000 C 310.833 177.000,310.573 176.685,310.200 176.300 C 309.827 175.915,309.477 175.600,309.422 175.600 C 309.367 175.600,309.627 175.915,310.000 176.300 M295.200 176.873 C 295.200 176.928,295.470 177.165,295.800 177.400 C 296.130 177.635,296.400 177.782,296.400 177.727 C 296.400 177.672,296.130 177.435,295.800 177.200 C 295.470 176.965,295.200 176.818,295.200 176.873 M292.600 177.273 C 292.600 177.328,292.870 177.565,293.200 177.800 C 293.530 178.035,293.800 178.182,293.800 178.127 C 293.800 178.072,293.530 177.835,293.200 177.600 C 292.870 177.365,292.600 177.218,292.600 177.273 M311.400 178.000 C 311.748 178.440,312.079 178.800,312.134 178.800 C 312.189 178.800,311.948 178.440,311.600 178.000 C 311.252 177.560,310.921 177.200,310.866 177.200 C 310.811 177.200,311.052 177.560,311.400 178.000 M261.194 178.950 L 259.900 180.300 261.250 179.006 C 262.504 177.804,262.691 177.600,262.544 177.600 C 262.514 177.600,261.906 178.208,261.194 178.950 M297.400 178.463 C 297.400 178.512,298.098 179.063,298.950 179.687 C 299.803 180.312,300.202 180.559,299.837 180.236 C 299.046 179.536,297.400 178.338,297.400 178.463 M276.800 178.677 C 276.800 178.720,277.065 178.794,277.389 178.841 C 277.714 178.889,277.933 178.854,277.878 178.764 C 277.779 178.603,276.800 178.525,276.800 178.677 M278.200 179.066 C 278.200 179.121,278.560 179.452,279.000 179.800 C 279.440 180.148,279.800 180.389,279.800 180.334 C 279.800 180.279,279.440 179.948,279.000 179.600 C 278.560 179.252,278.200 179.011,278.200 179.066 M313.318 180.650 C 313.724 181.283,314.094 181.800,314.140 181.800 C 314.274 181.800,313.550 180.641,313.045 180.047 C 312.789 179.746,312.912 180.018,313.318 180.650 M300.600 180.863 C 300.600 180.897,300.893 181.190,301.250 181.513 L 301.900 182.100 301.313 181.450 C 300.765 180.844,300.600 180.708,300.600 180.863 M280.800 181.066 C 280.800 181.121,281.160 181.452,281.600 181.800 C 282.040 182.148,282.400 182.389,282.400 182.334 C 282.400 182.279,282.040 181.948,281.600 181.600 C 281.160 181.252,280.800 181.011,280.800 181.066 M282.600 182.466 C 282.600 182.521,282.960 182.852,283.400 183.200 C 283.840 183.548,284.200 183.789,284.200 183.734 C 284.200 183.679,283.840 183.348,283.400 183.000 C 282.960 182.652,282.600 182.411,282.600 182.466 M301.490 182.781 C 301.386 182.880,301.120 183.004,300.900 183.057 C 300.521 183.149,300.522 183.155,300.926 183.177 C 301.160 183.190,301.463 183.065,301.600 182.900 C 301.871 182.573,301.795 182.490,301.490 182.781 M275.946 183.144 C 276.301 183.189,276.931 183.189,277.346 183.146 C 277.760 183.103,277.470 183.067,276.700 183.066 C 275.930 183.065,275.590 183.100,275.946 183.144 M283.200 185.063 C 283.200 185.097,283.493 185.390,283.850 185.713 L 284.500 186.300 283.913 185.650 C 283.365 185.044,283.200 184.908,283.200 185.063 M286.200 185.266 C 286.200 185.321,286.560 185.652,287.000 186.000 C 287.440 186.348,287.800 186.589,287.800 186.534 C 287.800 186.479,287.440 186.148,287.000 185.800 C 286.560 185.452,286.200 185.211,286.200 185.266 M288.000 186.666 C 288.000 186.721,288.360 187.052,288.800 187.400 C 289.240 187.748,289.600 187.989,289.600 187.934 C 289.600 187.879,289.240 187.548,288.800 187.200 C 288.360 186.852,288.000 186.611,288.000 186.666 M317.542 188.093 C 317.948 188.914,318.313 189.553,318.353 189.513 C 318.442 189.424,317.033 186.600,316.899 186.600 C 316.846 186.600,317.136 187.272,317.542 188.093 M273.450 189.100 C 273.453 189.540,273.494 189.696,273.541 189.448 C 273.589 189.199,273.587 188.839,273.537 188.648 C 273.487 188.456,273.448 188.660,273.450 189.100 M287.600 188.666 C 287.600 188.721,287.960 189.052,288.400 189.400 C 288.840 189.748,289.200 189.989,289.200 189.934 C 289.200 189.879,288.840 189.548,288.400 189.200 C 287.960 188.852,287.600 188.611,287.600 188.666 M290.800 188.866 C 290.800 188.921,291.160 189.252,291.600 189.600 C 292.040 189.948,292.400 190.189,292.400 190.134 C 292.400 190.079,292.040 189.748,291.600 189.400 C 291.160 189.052,290.800 188.811,290.800 188.866 M289.400 190.066 C 289.400 190.121,289.760 190.452,290.200 190.800 C 290.640 191.148,291.000 191.389,291.000 191.334 C 291.000 191.279,290.640 190.948,290.200 190.600 C 289.760 190.252,289.400 190.011,289.400 190.066 M294.150 191.610 C 294.914 192.443,294.965 192.862,294.355 193.289 C 294.111 193.460,294.007 193.600,294.125 193.600 C 295.095 193.600,295.168 192.433,294.250 191.589 L 293.500 190.900 294.150 191.610 M291.200 191.466 C 291.200 191.521,291.560 191.852,292.000 192.200 C 292.440 192.548,292.800 192.789,292.800 192.734 C 292.800 192.679,292.440 192.348,292.000 192.000 C 291.560 191.652,291.200 191.411,291.200 191.466 M277.155 193.947 C 277.626 193.989,278.346 193.988,278.755 193.945 C 279.165 193.902,278.780 193.868,277.900 193.869 C 277.020 193.869,276.685 193.904,277.155 193.947 M277.250 195.743 C 277.553 195.789,278.048 195.789,278.350 195.743 C 278.653 195.697,278.405 195.660,277.800 195.660 C 277.195 195.660,276.947 195.697,277.250 195.743 M286.700 199.510 C 291.060 203.879,291.440 204.369,291.008 205.062 C 290.760 205.462,290.765 205.476,291.068 205.226 C 291.833 204.593,289.845 202.107,284.971 197.601 C 283.506 196.248,284.120 196.925,286.700 199.510 M280.017 196.061 C 280.063 196.094,280.370 196.279,280.700 196.472 L 281.300 196.824 280.828 196.412 C 280.568 196.185,280.261 196.000,280.145 196.000 C 280.028 196.000,279.971 196.027,280.017 196.061 M285.743 201.121 C 288.077 203.475,290.022 205.400,290.066 205.400 C 290.223 205.400,283.194 198.243,282.356 197.550 C 281.885 197.161,283.409 198.768,285.743 201.121 M325.232 202.800 C 325.224 202.965,325.339 203.640,325.488 204.300 C 325.637 204.960,325.760 205.275,325.760 205.000 C 325.762 204.439,325.256 202.331,325.232 202.800 M275.440 208.240 C 275.157 208.523,275.123 209.129,275.381 209.288 C 275.481 209.350,275.515 209.220,275.458 208.999 C 275.400 208.778,275.464 208.463,275.601 208.299 C 275.897 207.942,275.781 207.899,275.440 208.240 M271.200 208.875 C 271.200 209.091,271.994 210.600,272.108 210.600 C 272.163 210.600,272.015 210.218,271.779 209.750 C 271.316 208.831,271.200 208.656,271.200 208.875 M278.500 210.200 C 279.042 210.750,279.530 211.200,279.585 211.200 C 279.640 211.200,279.242 210.750,278.700 210.200 C 278.158 209.650,277.670 209.200,277.615 209.200 C 277.560 209.200,277.958 209.650,278.500 210.200 M276.561 210.750 C 277.112 211.382,277.858 212.170,278.219 212.500 C 278.580 212.830,278.164 212.313,277.295 211.350 C 275.527 209.392,275.014 208.972,276.561 210.750 M283.700 215.600 C 286.008 217.910,287.941 219.800,287.996 219.800 C 288.051 219.800,286.208 217.910,283.900 215.600 C 281.592 213.290,279.659 211.400,279.604 211.400 C 279.549 211.400,281.392 213.290,283.700 215.600 M327.035 212.800 C 327.028 213.075,327.098 213.660,327.189 214.100 C 327.295 214.613,327.358 214.721,327.365 214.400 C 327.372 214.125,327.302 213.540,327.211 213.100 C 327.105 212.587,327.042 212.479,327.035 212.800 M282.250 216.702 C 286.204 220.713,286.083 220.543,285.050 220.662 L 284.300 220.748 285.085 220.724 C 286.331 220.686,286.200 220.493,282.351 216.698 L 278.700 213.100 282.250 216.702 M273.630 216.916 C 275.717 219.954,278.638 222.429,279.325 221.741 C 279.373 221.694,278.981 221.536,278.456 221.391 C 277.233 221.054,275.399 219.251,273.634 216.650 C 272.943 215.632,272.333 214.800,272.277 214.800 C 272.222 214.800,272.830 215.752,273.630 216.916 M327.435 215.400 C 327.428 215.675,327.498 216.260,327.589 216.700 C 327.695 217.213,327.758 217.321,327.765 217.000 C 327.772 216.725,327.702 216.140,327.611 215.700 C 327.505 215.187,327.442 215.079,327.435 215.400 M327.846 218.200 C 327.846 218.585,327.888 218.743,327.938 218.550 C 327.988 218.357,327.988 218.043,327.938 217.850 C 327.888 217.657,327.846 217.815,327.846 218.200 M328.046 219.600 C 328.046 219.985,328.088 220.143,328.138 219.950 C 328.188 219.757,328.188 219.443,328.138 219.250 C 328.088 219.058,328.046 219.215,328.046 219.600 M288.200 219.878 C 288.200 219.936,288.831 220.486,289.601 221.101 C 290.391 221.731,291.121 222.499,291.274 222.860 C 291.423 223.212,291.757 223.680,292.015 223.900 C 292.422 224.246,292.412 224.209,291.943 223.635 C 291.644 223.269,291.400 222.859,291.400 222.724 C 291.400 222.589,291.108 222.208,290.750 221.878 C 289.841 221.039,288.200 219.752,288.200 219.878 M328.246 221.000 C 328.246 221.385,328.288 221.543,328.338 221.350 C 328.388 221.157,328.388 220.843,328.338 220.650 C 328.288 220.457,328.246 220.615,328.246 221.000 M328.450 222.500 C 328.453 222.940,328.494 223.096,328.541 222.848 C 328.589 222.599,328.587 222.239,328.537 222.048 C 328.487 221.856,328.448 222.060,328.450 222.500 M280.850 222.138 C 281.043 222.188,281.358 222.188,281.550 222.138 C 281.743 222.088,281.585 222.046,281.200 222.046 C 280.815 222.046,280.657 222.088,280.850 222.138 M282.453 222.344 C 282.757 222.389,283.207 222.388,283.453 222.341 C 283.699 222.293,283.450 222.256,282.900 222.257 C 282.350 222.259,282.149 222.298,282.453 222.344 M284.755 222.547 C 285.226 222.589,285.946 222.588,286.355 222.545 C 286.765 222.502,286.380 222.468,285.500 222.469 C 284.620 222.469,284.285 222.504,284.755 222.547 M287.900 222.792 C 288.120 222.883,289.155 223.741,290.200 224.697 C 292.052 226.392,296.905 230.188,296.769 229.834 C 296.731 229.737,295.615 228.842,294.290 227.847 C 292.964 226.852,291.053 225.264,290.043 224.319 C 289.032 223.373,288.047 222.606,287.853 222.613 C 287.549 222.624,287.556 222.649,287.900 222.792 M328.646 224.000 C 328.646 224.385,328.688 224.543,328.738 224.350 C 328.788 224.157,328.788 223.843,328.738 223.650 C 328.688 223.457,328.646 223.615,328.646 224.000 M328.843 225.500 C 328.838 225.830,328.905 226.550,328.991 227.100 C 329.118 227.918,329.149 227.972,329.158 227.400 C 329.165 227.015,329.098 226.295,329.010 225.800 C 328.894 225.146,328.848 225.064,328.843 225.500 M327.046 225.800 C 327.046 226.185,327.088 226.343,327.138 226.150 C 327.188 225.957,327.188 225.643,327.138 225.450 C 327.088 225.257,327.046 225.415,327.046 225.800 M294.800 226.073 C 294.800 226.128,295.070 226.365,295.400 226.600 C 295.730 226.835,296.000 226.982,296.000 226.927 C 296.000 226.872,295.730 226.635,295.400 226.400 C 295.070 226.165,294.800 226.018,294.800 226.073 M329.257 229.100 C 329.259 229.650,329.298 229.851,329.344 229.547 C 329.389 229.243,329.388 228.793,329.341 228.547 C 329.293 228.301,329.256 228.550,329.257 229.100 M327.450 229.300 C 327.453 229.740,327.494 229.896,327.541 229.648 C 327.589 229.399,327.587 229.039,327.537 228.848 C 327.487 228.656,327.448 228.860,327.450 229.300 M329.550 232.900 C 329.607 234.440,329.686 235.738,329.727 235.783 C 329.852 235.926,329.761 232.767,329.600 231.400 C 329.504 230.580,329.485 231.133,329.550 232.900 M296.662 231.700 C 296.663 232.360,296.700 232.606,296.745 232.246 C 296.789 231.887,296.789 231.347,296.743 231.046 C 296.697 230.746,296.661 231.040,296.662 231.700 M327.646 231.400 C 327.646 231.785,327.688 231.943,327.738 231.750 C 327.788 231.558,327.788 231.243,327.738 231.050 C 327.688 230.857,327.646 231.015,327.646 231.400 M298.450 232.900 C 298.453 233.340,298.494 233.496,298.541 233.248 C 298.589 232.999,298.587 232.639,298.537 232.448 C 298.487 232.256,298.448 232.460,298.450 232.900 M296.457 233.900 C 296.459 234.450,296.498 234.651,296.544 234.347 C 296.589 234.043,296.588 233.593,296.541 233.347 C 296.493 233.101,296.456 233.350,296.457 233.900 M327.860 234.000 C 327.860 234.605,327.897 234.853,327.943 234.550 C 327.989 234.248,327.989 233.753,327.943 233.450 C 327.897 233.148,327.860 233.395,327.860 234.000 M298.246 234.800 C 298.246 235.185,298.288 235.343,298.338 235.150 C 298.388 234.957,298.388 234.643,298.338 234.450 C 298.288 234.257,298.246 234.415,298.246 234.800 M311.823 234.510 C 311.810 234.736,311.710 235.028,311.601 235.161 C 311.491 235.293,311.545 235.277,311.720 235.124 C 311.895 234.972,311.995 234.679,311.942 234.474 C 311.856 234.137,311.844 234.140,311.823 234.510 M296.254 236.000 C 296.254 236.495,296.293 236.697,296.341 236.450 C 296.389 236.203,296.389 235.798,296.341 235.550 C 296.293 235.303,296.254 235.505,296.254 236.000 M298.050 236.700 C 298.053 237.140,298.094 237.296,298.141 237.048 C 298.189 236.799,298.187 236.439,298.137 236.248 C 298.087 236.056,298.048 236.260,298.050 236.700 M329.800 240.660 L 329.899 245.100 329.954 240.814 C 329.984 238.457,329.939 236.459,329.854 236.374 C 329.769 236.289,329.745 238.217,329.800 240.660 M296.054 238.000 C 296.054 238.495,296.093 238.697,296.141 238.450 C 296.189 238.203,296.189 237.798,296.141 237.550 C 296.093 237.303,296.054 237.505,296.054 238.000 M328.081 240.800 C 328.081 242.615,328.112 243.357,328.149 242.450 C 328.186 241.543,328.186 240.058,328.149 239.150 C 328.112 238.243,328.081 238.985,328.081 240.800 M297.850 238.500 C 297.853 238.940,297.894 239.096,297.941 238.848 C 297.989 238.599,297.987 238.239,297.937 238.048 C 297.887 237.856,297.848 238.060,297.850 238.500 M295.854 240.000 C 295.854 240.495,295.893 240.697,295.941 240.450 C 295.989 240.203,295.989 239.798,295.941 239.550 C 295.893 239.303,295.854 239.505,295.854 240.000 M297.650 240.500 C 297.653 240.940,297.694 241.096,297.741 240.848 C 297.789 240.599,297.787 240.239,297.737 240.048 C 297.687 239.856,297.648 240.060,297.650 240.500 M295.654 242.000 C 295.654 242.495,295.693 242.697,295.741 242.450 C 295.789 242.203,295.789 241.798,295.741 241.550 C 295.693 241.303,295.654 241.505,295.654 242.000 M297.446 242.400 C 297.446 242.785,297.488 242.943,297.538 242.750 C 297.588 242.558,297.588 242.243,297.538 242.050 C 297.488 241.857,297.446 242.015,297.446 242.400 M295.454 244.000 C 295.454 244.495,295.493 244.697,295.541 244.450 C 295.589 244.203,295.589 243.798,295.541 243.550 C 295.493 243.303,295.454 243.505,295.454 244.000 M297.246 244.400 C 297.246 244.785,297.288 244.943,297.338 244.750 C 297.388 244.558,297.388 244.243,297.338 244.050 C 297.288 243.857,297.246 244.015,297.246 244.400 M295.105 246.905 C 295.026 247.853,295.004 248.671,295.056 248.723 C 295.109 248.775,295.216 248.042,295.295 247.095 C 295.374 246.147,295.396 245.329,295.344 245.277 C 295.291 245.225,295.184 245.958,295.105 246.905 M297.046 246.400 C 297.046 246.785,297.088 246.943,297.138 246.750 C 297.188 246.558,297.188 246.243,297.138 246.050 C 297.088 245.857,297.046 246.015,297.046 246.400 M329.908 260.650 C 329.831 267.828,329.798 274.600,329.834 275.700 L 329.900 277.700 330.600 277.735 C 331.282 277.768,331.285 277.766,330.700 277.632 L 330.100 277.495 330.165 262.547 C 330.201 254.326,330.190 247.600,330.139 247.600 C 330.089 247.600,329.985 253.472,329.908 260.650 M294.854 249.800 C 294.854 250.295,294.893 250.498,294.941 250.250 C 294.989 250.003,294.989 249.597,294.941 249.350 C 294.893 249.103,294.854 249.305,294.854 249.800 M294.654 251.800 C 294.654 252.295,294.693 252.498,294.741 252.250 C 294.789 252.003,294.789 251.597,294.741 251.350 C 294.693 251.103,294.654 251.305,294.654 251.800 M296.446 252.200 C 296.446 252.585,296.488 252.743,296.538 252.550 C 296.588 252.357,296.588 252.043,296.538 251.850 C 296.488 251.657,296.446 251.815,296.446 252.200 M294.311 254.611 C 294.233 255.505,294.211 256.278,294.263 256.330 C 294.314 256.381,294.421 255.693,294.500 254.800 C 294.579 253.907,294.601 253.134,294.548 253.082 C 294.496 253.029,294.389 253.717,294.311 254.611 M296.246 254.000 C 296.246 254.385,296.288 254.543,296.338 254.350 C 296.388 254.157,296.388 253.843,296.338 253.650 C 296.288 253.457,296.246 253.615,296.246 254.000 M296.046 256.000 C 296.046 256.385,296.088 256.543,296.138 256.350 C 296.188 256.157,296.188 255.843,296.138 255.650 C 296.088 255.457,296.046 255.615,296.046 256.000 M294.057 257.700 C 294.059 258.250,294.098 258.451,294.144 258.147 C 294.189 257.843,294.188 257.393,294.141 257.147 C 294.093 256.901,294.056 257.150,294.057 257.700 M295.850 257.900 C 295.853 258.340,295.894 258.496,295.941 258.248 C 295.989 257.999,295.987 257.639,295.937 257.448 C 295.887 257.256,295.848 257.460,295.850 257.900 M293.854 259.600 C 293.854 260.095,293.893 260.298,293.941 260.050 C 293.989 259.803,293.989 259.397,293.941 259.150 C 293.893 258.903,293.854 259.105,293.854 259.600 M293.657 261.500 C 293.659 262.050,293.698 262.251,293.744 261.947 C 293.789 261.643,293.788 261.193,293.741 260.947 C 293.693 260.701,293.656 260.950,293.657 261.500 M295.446 261.800 C 295.446 262.185,295.488 262.343,295.538 262.150 C 295.588 261.957,295.588 261.643,295.538 261.450 C 295.488 261.257,295.446 261.415,295.446 261.800 M293.305 264.305 C 293.226 265.253,293.204 266.071,293.256 266.123 C 293.309 266.175,293.416 265.442,293.495 264.495 C 293.574 263.547,293.596 262.729,293.544 262.677 C 293.491 262.625,293.384 263.358,293.305 264.305 M293.057 267.300 C 293.059 267.850,293.098 268.051,293.144 267.747 C 293.189 267.443,293.188 266.993,293.141 266.747 C 293.093 266.501,293.056 266.750,293.057 267.300 M328.000 271.940 C 327.945 275.042,327.969 277.511,328.053 277.427 C 328.138 277.343,328.182 274.804,328.153 271.787 L 328.100 266.300 328.000 271.940 M294.846 267.600 C 294.846 267.985,294.888 268.143,294.938 267.950 C 294.988 267.757,294.988 267.443,294.938 267.250 C 294.888 267.058,294.846 267.215,294.846 267.600 M292.854 269.200 C 292.854 269.695,292.893 269.897,292.941 269.650 C 292.989 269.403,292.989 268.998,292.941 268.750 C 292.893 268.502,292.854 268.705,292.854 269.200 M294.646 269.600 C 294.646 269.985,294.688 270.143,294.738 269.950 C 294.788 269.757,294.788 269.443,294.738 269.250 C 294.688 269.058,294.646 269.215,294.646 269.600 M292.654 271.200 C 292.654 271.695,292.693 271.897,292.741 271.650 C 292.789 271.403,292.789 270.998,292.741 270.750 C 292.693 270.502,292.654 270.705,292.654 271.200 M294.450 271.500 C 294.453 271.940,294.494 272.096,294.541 271.848 C 294.589 271.599,294.587 271.239,294.537 271.048 C 294.487 270.856,294.448 271.060,294.450 271.500 M292.310 274.010 C 292.232 275.013,292.210 275.876,292.262 275.928 C 292.313 275.980,292.421 275.202,292.500 274.200 C 292.579 273.198,292.601 272.334,292.548 272.282 C 292.496 272.229,292.388 273.007,292.310 274.010 M294.246 273.400 C 294.246 273.785,294.288 273.943,294.338 273.750 C 294.388 273.558,294.388 273.243,294.338 273.050 C 294.288 272.858,294.246 273.015,294.246 273.400 M294.046 275.400 C 294.046 275.785,294.088 275.943,294.138 275.750 C 294.188 275.558,294.188 275.243,294.138 275.050 C 294.088 274.858,294.046 275.015,294.046 275.400 M291.988 276.800 L 291.900 277.500 180.400 277.600 L 68.900 277.701 180.326 277.750 C 277.088 277.793,291.782 277.762,291.990 277.512 C 292.121 277.354,292.195 276.971,292.153 276.662 C 292.081 276.133,292.071 276.141,291.988 276.800 M66.388 278.257 C 63.494 279.244,61.192 281.241,59.884 283.898 C 58.529 286.653,58.602 284.205,58.651 325.200 L 58.696 362.300 58.798 324.600 C 58.895 288.636,58.917 286.849,59.269 285.800 C 60.612 281.797,63.693 278.954,67.600 278.112 C 68.390 277.942,68.665 277.828,68.300 277.821 C 67.970 277.815,67.110 278.012,66.388 278.257 M332.760 278.204 C 335.802 279.001,338.462 281.062,339.812 283.665 C 340.186 284.386,340.525 284.942,340.565 284.902 C 340.795 284.672,339.111 282.111,338.000 281.000 C 336.276 279.276,333.304 277.769,331.714 277.811 C 331.486 277.817,331.957 277.994,332.760 278.204 M66.450 280.795 C 65.983 281.007,65.600 281.225,65.600 281.279 C 65.600 281.370,67.395 280.641,67.583 280.474 C 67.800 280.282,67.216 280.447,66.450 280.795 M64.354 282.150 C 63.339 283.050,62.868 283.565,62.572 284.100 C 62.451 284.320,62.681 284.121,63.084 283.658 C 63.487 283.196,64.189 282.498,64.644 282.108 C 65.100 281.719,65.411 281.400,65.337 281.400 C 65.262 281.400,64.820 281.738,64.354 282.150 M335.342 282.084 C 335.804 282.487,336.514 283.196,336.918 283.658 C 337.323 284.121,337.565 284.333,337.457 284.129 C 337.185 283.615,335.386 281.805,334.900 281.556 C 334.680 281.443,334.879 281.681,335.342 282.084 M61.890 285.219 C 61.714 285.559,61.606 285.873,61.649 285.916 C 61.693 285.959,61.878 285.681,62.061 285.297 C 62.472 284.435,62.330 284.369,61.890 285.219 M340.620 285.301 C 340.609 285.412,340.712 285.817,340.849 286.201 C 341.042 286.745,341.121 295.274,341.202 324.600 L 341.307 362.300 341.303 324.600 C 341.300 290.075,341.272 286.824,340.969 286.000 C 340.788 285.505,340.631 285.191,340.620 285.301 M84.733 291.533 C 84.660 291.607,84.601 291.764,84.603 291.883 C 84.605 292.011,84.672 291.996,84.766 291.848 C 84.893 291.648,89.181 291.607,105.744 291.648 C 117.194 291.677,126.520 291.632,126.469 291.550 C 126.355 291.365,84.918 291.348,84.733 291.533 M268.024 291.671 C 267.859 291.870,267.812 300.921,267.849 325.721 L 267.900 359.500 272.550 359.554 C 275.108 359.583,277.200 359.538,277.200 359.454 C 277.200 359.369,275.130 359.326,272.600 359.357 L 267.999 359.414 268.049 325.557 L 268.100 291.700 272.631 291.700 C 275.123 291.700,277.120 291.632,277.069 291.550 C 276.888 291.257,268.272 291.373,268.024 291.671 M110.200 299.798 L 93.900 299.900 93.848 309.188 C 93.819 314.296,93.864 318.544,93.948 318.628 C 94.032 318.712,94.076 314.555,94.046 309.390 L 93.992 300.000 110.184 300.000 C 120.763 300.000,126.419 299.931,126.500 299.800 C 126.568 299.690,126.596 299.622,126.562 299.648 C 126.528 299.675,119.165 299.742,110.200 299.798 M153.057 308.948 C 153.694 308.988,154.684 308.987,155.257 308.947 C 155.831 308.907,155.310 308.874,154.100 308.875 C 152.890 308.875,152.421 308.908,153.057 308.948 M204.857 308.948 C 205.494 308.988,206.484 308.987,207.057 308.947 C 207.631 308.907,207.110 308.874,205.900 308.875 C 204.690 308.875,204.221 308.908,204.857 308.948 M157.250 309.138 C 157.442 309.188,157.758 309.188,157.950 309.138 C 158.143 309.088,157.985 309.046,157.600 309.046 C 157.215 309.046,157.058 309.088,157.250 309.138 M161.900 310.000 C 162.120 310.095,162.435 310.172,162.600 310.172 C 162.789 310.172,162.752 310.108,162.500 310.000 C 162.280 309.905,161.965 309.828,161.800 309.828 C 161.611 309.828,161.648 309.892,161.900 310.000 M143.950 311.113 C 143.428 311.385,143.000 311.652,143.000 311.707 C 143.000 311.796,144.980 310.861,145.183 310.676 C 145.431 310.450,144.780 310.681,143.950 311.113 M195.950 311.014 C 195.538 311.231,195.200 311.454,195.200 311.509 C 195.200 311.598,196.780 310.860,196.983 310.675 C 197.213 310.467,196.613 310.664,195.950 311.014 M216.417 310.876 C 216.621 311.062,218.600 311.996,218.600 311.907 C 218.600 311.794,216.690 310.800,216.473 310.800 C 216.396 310.800,216.371 310.834,216.417 310.876 M165.017 311.075 C 165.222 311.259,166.400 311.800,166.400 311.710 C 166.400 311.595,165.291 311.000,165.077 311.000 C 164.998 311.000,164.971 311.034,165.017 311.075 M193.462 312.495 C 192.894 312.878,192.368 313.290,192.294 313.410 C 192.177 313.599,193.951 312.431,194.490 311.965 C 194.924 311.589,194.428 311.845,193.462 312.495 M218.800 312.062 C 218.800 312.109,219.183 312.399,219.650 312.707 C 220.118 313.016,220.394 313.140,220.265 312.984 C 220.017 312.684,218.800 311.918,218.800 312.062 M220.600 313.241 C 220.600 313.283,221.253 313.894,222.050 314.598 C 222.847 315.301,223.275 315.626,223.000 315.318 C 222.472 314.729,220.600 313.108,220.600 313.241 M169.000 313.463 C 169.000 313.497,169.293 313.790,169.650 314.113 L 170.300 314.700 169.713 314.050 C 169.165 313.444,169.000 313.308,169.000 313.463 M137.989 315.550 C 136.735 316.852,135.283 318.520,136.117 317.700 C 137.083 316.751,139.460 314.200,139.378 314.200 C 139.329 314.200,138.704 314.808,137.989 315.550 M170.976 315.369 C 171.311 315.792,171.743 316.265,171.937 316.419 C 172.131 316.574,171.895 316.228,171.413 315.650 C 170.403 314.439,170.069 314.225,170.976 315.369 M189.317 316.050 C 188.011 317.496,186.682 319.200,186.859 319.200 C 186.910 319.200,187.318 318.716,187.764 318.124 C 188.211 317.532,189.087 316.497,189.710 315.824 C 190.333 315.151,190.794 314.600,190.734 314.600 C 190.675 314.600,190.037 315.253,189.317 316.050 M223.991 316.750 C 224.363 317.218,224.703 317.600,224.747 317.600 C 224.888 317.600,224.031 316.475,223.667 316.182 C 223.474 316.027,223.620 316.283,223.991 316.750 M153.754 316.345 C 154.113 316.389,154.653 316.389,154.954 316.343 C 155.254 316.297,154.960 316.261,154.300 316.262 C 153.640 316.263,153.394 316.300,153.754 316.345 M205.550 316.345 C 205.907 316.389,206.493 316.389,206.850 316.345 C 207.207 316.300,206.915 316.264,206.200 316.264 C 205.485 316.264,205.193 316.300,205.550 316.345 M199.350 317.814 C 198.938 318.031,198.600 318.254,198.600 318.309 C 198.600 318.398,200.180 317.660,200.383 317.475 C 200.613 317.267,200.013 317.464,199.350 317.814 M146.346 318.507 C 145.936 318.786,145.600 319.057,145.600 319.110 C 145.600 319.163,145.960 318.967,146.400 318.676 C 147.099 318.214,147.335 318.000,147.146 318.000 C 147.117 318.000,146.757 318.228,146.346 318.507 M161.600 318.044 C 161.600 318.080,162.138 318.501,162.795 318.980 C 163.452 319.459,164.363 320.334,164.819 320.925 C 165.726 322.101,166.100 322.389,165.371 321.350 C 164.547 320.177,161.600 317.593,161.600 318.044 M135.044 319.050 C 134.314 320.128,134.156 320.400,134.260 320.400 C 134.306 320.400,134.672 319.905,135.074 319.300 C 135.475 318.695,135.762 318.200,135.712 318.200 C 135.661 318.200,135.360 318.582,135.044 319.050 M225.500 319.000 C 225.671 319.330,225.855 319.600,225.910 319.600 C 225.965 319.600,225.871 319.330,225.700 319.000 C 225.529 318.670,225.345 318.400,225.290 318.400 C 225.235 318.400,225.329 318.670,225.500 319.000 M214.400 318.645 C 214.400 318.688,214.918 319.164,215.550 319.702 C 216.183 320.240,216.520 320.472,216.300 320.218 C 215.882 319.735,214.400 318.508,214.400 318.645 M144.082 320.450 C 143.111 321.456,141.768 323.048,142.521 322.300 C 143.361 321.466,145.448 319.200,145.377 319.200 C 145.328 319.200,144.746 319.763,144.082 320.450 M174.139 319.897 C 174.322 320.281,174.507 320.559,174.551 320.516 C 174.642 320.425,174.035 319.200,173.898 319.200 C 173.848 319.200,173.956 319.514,174.139 319.897 M195.630 320.700 C 194.962 321.414,194.316 322.202,194.196 322.450 C 194.057 322.737,194.143 322.683,194.433 322.300 C 194.684 321.970,195.378 321.183,195.975 320.550 C 196.572 319.918,197.013 319.400,196.953 319.400 C 196.894 319.400,196.299 319.985,195.630 320.700 M226.017 319.900 C 226.017 320.010,226.189 320.415,226.400 320.800 C 226.611 321.185,226.783 321.410,226.783 321.300 C 226.783 321.190,226.611 320.785,226.400 320.400 C 226.189 320.015,226.017 319.790,226.017 319.900 M185.800 320.800 C 185.576 321.240,185.437 321.600,185.492 321.600 C 185.547 321.600,185.776 321.240,186.000 320.800 C 186.224 320.360,186.363 320.000,186.308 320.000 C 186.253 320.000,186.024 320.360,185.800 320.800 M217.102 321.500 C 217.903 322.613,218.125 322.820,217.678 322.037 C 217.470 321.672,217.126 321.222,216.913 321.037 C 216.688 320.841,216.767 321.035,217.102 321.500 M133.390 321.819 C 133.160 322.270,133.006 322.673,133.048 322.715 C 133.090 322.757,133.320 322.388,133.560 321.896 C 134.105 320.774,133.957 320.707,133.390 321.819 M166.240 323.096 C 166.480 323.588,166.710 323.957,166.752 323.915 C 166.842 323.825,166.034 322.200,165.899 322.200 C 165.847 322.200,166.001 322.603,166.240 323.096 M132.632 323.509 C 132.297 324.244,132.361 324.401,132.724 323.732 C 132.893 323.420,132.994 323.127,132.948 323.081 C 132.902 323.036,132.760 323.228,132.632 323.509 M105.800 326.598 L 93.900 326.700 93.849 343.050 L 93.798 359.400 89.315 359.400 C 86.454 359.400,84.797 359.326,84.732 359.195 C 84.676 359.082,84.653 359.105,84.682 359.245 C 84.722 359.443,85.762 359.500,89.317 359.500 L 93.900 359.500 93.951 343.150 L 94.002 326.800 105.789 326.800 C 113.432 326.800,117.620 326.730,117.700 326.600 C 117.768 326.490,117.796 326.421,117.762 326.448 C 117.728 326.474,112.345 326.541,105.800 326.598 M228.046 327.000 C 228.046 327.385,228.088 327.543,228.138 327.350 C 228.188 327.158,228.188 326.843,228.138 326.650 C 228.088 326.457,228.046 326.615,228.046 327.000 M176.254 327.600 C 176.254 328.095,176.293 328.298,176.341 328.050 C 176.389 327.803,176.389 327.398,176.341 327.150 C 176.293 326.903,176.254 327.105,176.254 327.600 M219.434 328.049 L 219.400 328.997 205.650 329.050 L 191.900 329.103 205.656 329.151 C 220.858 329.205,219.696 329.312,219.547 327.871 C 219.471 327.138,219.466 327.146,219.434 328.049 M167.627 328.350 L 167.600 329.000 153.915 329.000 C 141.054 329.000,140.223 328.979,140.126 328.650 C 140.046 328.378,140.032 328.389,140.064 328.700 C 140.105 329.095,140.271 329.101,153.858 329.151 C 168.740 329.207,167.952 329.263,167.743 328.165 C 167.676 327.811,167.648 327.855,167.627 328.350 M228.269 330.100 C 228.269 330.980,228.304 331.315,228.347 330.845 C 228.389 330.374,228.388 329.654,228.345 329.245 C 228.302 328.835,228.268 329.220,228.269 330.100 M130.654 332.400 C 130.654 332.895,130.693 333.098,130.741 332.850 C 130.789 332.603,130.789 332.197,130.741 331.950 C 130.693 331.703,130.654 331.905,130.654 332.400 M176.246 332.400 C 176.246 332.785,176.288 332.943,176.338 332.750 C 176.388 332.558,176.388 332.243,176.338 332.050 C 176.288 331.858,176.246 332.015,176.246 332.400 M182.462 333.300 C 182.463 333.960,182.500 334.206,182.545 333.846 C 182.589 333.487,182.589 332.947,182.543 332.646 C 182.497 332.346,182.461 332.640,182.462 333.300 M175.754 334.954 L 175.638 335.398 157.769 335.449 L 139.900 335.500 139.882 336.700 L 139.864 337.900 139.942 336.750 L 140.020 335.600 157.785 335.600 C 176.508 335.600,176.237 335.612,175.954 334.762 C 175.908 334.624,175.818 334.710,175.754 334.954 M191.678 335.685 C 191.618 335.842,191.608 336.180,191.657 336.435 C 191.724 336.790,191.752 336.746,191.773 336.251 L 191.800 335.602 209.750 335.550 L 227.700 335.498 209.744 335.449 C 194.342 335.407,191.772 335.441,191.678 335.685 M182.462 337.100 C 182.463 337.760,182.500 338.006,182.545 337.646 C 182.589 337.287,182.589 336.747,182.543 336.446 C 182.497 336.146,182.461 336.440,182.462 337.100 M130.654 338.000 C 130.654 338.495,130.693 338.697,130.741 338.450 C 130.789 338.203,130.789 337.798,130.741 337.550 C 130.693 337.303,130.654 337.505,130.654 338.000 M191.846 338.600 C 191.846 338.985,191.888 339.143,191.938 338.950 C 191.988 338.757,191.988 338.443,191.938 338.250 C 191.888 338.058,191.846 338.215,191.846 338.600 M182.646 339.400 C 182.646 339.785,182.688 339.943,182.738 339.750 C 182.788 339.558,182.788 339.243,182.738 339.050 C 182.688 338.858,182.646 339.015,182.646 339.400 M304.050 344.300 C 304.053 344.740,304.094 344.896,304.141 344.648 C 304.189 344.399,304.187 344.039,304.137 343.848 C 304.087 343.656,304.048 343.860,304.050 344.300 M247.046 345.200 C 247.046 345.585,247.088 345.743,247.138 345.550 C 247.188 345.358,247.188 345.043,247.138 344.850 C 247.088 344.658,247.046 344.815,247.046 345.200 M132.414 346.100 C 132.414 346.210,132.543 346.525,132.700 346.800 C 132.857 347.075,132.986 347.210,132.986 347.100 C 132.986 346.990,132.857 346.675,132.700 346.400 C 132.543 346.125,132.414 345.990,132.414 346.100 M238.257 346.900 C 238.259 347.450,238.298 347.651,238.344 347.347 C 238.389 347.043,238.388 346.593,238.341 346.347 C 238.293 346.101,238.256 346.350,238.257 346.900 M295.246 347.000 C 295.246 347.385,295.288 347.543,295.338 347.350 C 295.388 347.158,295.388 346.843,295.338 346.650 C 295.288 346.457,295.246 346.615,295.246 347.000 M143.003 347.100 C 143.466 347.777,145.466 349.807,146.100 350.243 C 146.430 350.470,146.231 350.235,145.658 349.720 C 145.085 349.205,144.192 348.315,143.673 347.742 C 143.154 347.169,142.853 346.880,143.003 347.100 M184.600 346.873 C 184.600 347.090,185.594 349.000,185.707 349.000 C 185.762 349.000,185.569 348.528,185.279 347.950 C 184.721 346.839,184.600 346.647,184.600 346.873 M195.191 347.587 C 196.251 349.076,200.698 352.369,201.102 351.965 C 201.142 351.925,200.483 351.538,199.637 351.104 C 198.523 350.533,197.643 349.861,196.438 348.661 C 195.524 347.750,194.963 347.267,195.191 347.587 M133.862 349.100 C 134.031 349.430,134.319 349.880,134.502 350.100 C 134.685 350.320,134.632 350.140,134.385 349.700 C 133.840 348.729,133.432 348.261,133.862 349.100 M167.701 348.998 C 167.631 349.112,167.714 349.144,167.899 349.073 C 168.089 349.000,168.342 349.103,168.521 349.325 C 168.804 349.678,168.809 349.674,168.604 349.250 C 168.378 348.783,167.914 348.654,167.701 348.998 M218.672 349.559 C 218.106 349.967,217.476 350.414,217.272 350.554 C 216.958 350.768,216.979 350.772,217.400 350.577 C 217.675 350.449,218.329 350.034,218.854 349.653 C 219.406 349.252,219.937 349.010,220.114 349.078 C 220.289 349.145,220.368 349.111,220.299 348.998 C 220.093 348.666,219.744 348.786,218.672 349.559 M220.662 349.900 C 220.831 350.230,221.119 350.680,221.302 350.900 C 221.485 351.120,221.432 350.940,221.185 350.500 C 220.640 349.529,220.232 349.061,220.662 349.900 M305.991 350.342 C 306.225 350.695,306.705 351.175,307.058 351.409 L 307.700 351.833 307.126 351.340 C 306.811 351.069,306.331 350.589,306.060 350.274 L 305.567 349.700 305.991 350.342 M165.350 350.514 C 164.602 350.920,164.648 351.089,165.400 350.700 C 165.730 350.529,166.000 350.347,166.000 350.295 C 166.000 350.166,165.979 350.173,165.350 350.514 M163.400 351.500 C 163.125 351.657,162.990 351.786,163.100 351.786 C 163.210 351.786,163.525 351.657,163.800 351.500 C 164.075 351.343,164.210 351.214,164.100 351.214 C 163.990 351.214,163.675 351.343,163.400 351.500 M135.937 352.112 C 136.745 353.143,139.283 355.558,140.200 356.168 C 140.808 356.573,140.795 356.549,140.100 355.986 C 139.660 355.630,138.400 354.430,137.300 353.319 C 136.201 352.209,135.587 351.665,135.937 352.112 M170.500 352.800 C 170.671 353.130,170.855 353.400,170.910 353.400 C 170.965 353.400,170.871 353.130,170.700 352.800 C 170.529 352.470,170.345 352.200,170.290 352.200 C 170.235 352.200,170.329 352.470,170.500 352.800 M189.200 353.672 C 190.264 354.787,192.466 356.569,193.700 357.312 C 194.635 357.875,194.041 357.368,192.510 356.296 C 191.745 355.760,190.440 354.691,189.610 353.920 C 188.262 352.668,188.218 352.642,189.200 353.672 M255.158 356.487 L 255.216 360.375 254.506 360.458 L 253.797 360.542 254.548 360.521 L 255.300 360.500 255.354 356.550 C 255.384 354.378,255.339 352.600,255.254 352.600 C 255.169 352.600,255.126 354.349,255.158 356.487 M152.850 352.938 C 153.042 352.988,153.358 352.988,153.550 352.938 C 153.743 352.888,153.585 352.846,153.200 352.846 C 152.815 352.846,152.657 352.888,152.850 352.938 M209.650 352.938 C 209.843 352.988,210.157 352.988,210.350 352.938 C 210.543 352.888,210.385 352.846,210.000 352.846 C 209.615 352.846,209.457 352.888,209.650 352.938 M297.539 354.015 C 297.737 354.354,298.028 354.736,298.184 354.865 C 298.340 354.994,298.216 354.718,297.907 354.250 C 297.260 353.268,297.005 353.106,297.539 354.015 M171.616 354.787 C 171.607 354.945,171.400 355.305,171.156 355.587 L 170.711 356.100 171.280 355.572 C 171.592 355.281,171.799 354.921,171.740 354.772 C 171.652 354.552,171.629 354.555,171.616 354.787 M222.897 355.567 C 222.565 355.860,222.070 356.264,221.797 356.463 C 221.317 356.815,221.321 356.815,221.917 356.463 C 222.737 355.981,223.681 355.215,223.580 355.114 C 223.536 355.069,223.228 355.273,222.897 355.567 M241.900 356.200 C 242.442 356.750,242.930 357.200,242.985 357.200 C 243.040 357.200,242.642 356.750,242.100 356.200 C 241.558 355.650,241.070 355.200,241.015 355.200 C 240.960 355.200,241.358 355.650,241.900 356.200 M299.600 356.500 C 300.309 357.215,300.933 357.800,300.988 357.800 C 301.043 357.800,300.509 357.215,299.800 356.500 C 299.091 355.785,298.467 355.200,298.412 355.200 C 298.357 355.200,298.891 355.785,299.600 356.500 M220.200 357.300 C 219.705 357.565,219.371 357.786,219.458 357.791 C 219.670 357.803,221.200 357.017,221.200 356.896 C 221.200 356.763,221.208 356.760,220.200 357.300 M243.689 357.671 C 244.111 358.055,245.868 359.003,246.143 358.995 C 246.230 358.993,245.733 358.686,245.041 358.312 C 244.348 357.939,243.669 357.559,243.531 357.467 C 243.394 357.375,243.465 357.467,243.689 357.671 M142.600 357.699 C 142.600 357.834,144.225 358.642,144.315 358.552 C 144.357 358.510,143.988 358.280,143.496 358.040 C 143.003 357.801,142.600 357.647,142.600 357.699 M167.000 357.900 C 166.725 358.057,166.590 358.186,166.700 358.186 C 166.810 358.186,167.125 358.057,167.400 357.900 C 167.675 357.743,167.810 357.614,167.700 357.614 C 167.590 357.614,167.275 357.743,167.000 357.900 M301.689 358.271 C 302.111 358.655,303.868 359.603,304.143 359.595 C 304.230 359.593,303.733 359.286,303.041 358.912 C 302.348 358.539,301.669 358.159,301.531 358.067 C 301.394 357.975,301.465 358.067,301.689 358.271 M164.500 358.817 C 163.950 359.029,163.760 359.152,164.078 359.091 C 164.707 358.968,166.025 358.433,165.700 358.432 C 165.590 358.431,165.050 358.605,164.500 358.817 M246.900 359.307 C 247.230 359.458,247.635 359.579,247.800 359.576 C 247.965 359.572,247.785 359.448,247.400 359.300 C 246.487 358.948,246.128 358.954,246.900 359.307 M150.450 360.338 C 150.643 360.388,150.958 360.388,151.150 360.338 C 151.343 360.288,151.185 360.246,150.800 360.246 C 150.415 360.246,150.258 360.288,150.450 360.338 M157.152 360.341 C 157.401 360.389,157.761 360.387,157.952 360.337 C 158.144 360.287,157.940 360.248,157.500 360.250 C 157.060 360.253,156.904 360.294,157.152 360.341 M202.450 360.338 C 202.643 360.388,202.958 360.388,203.150 360.338 C 203.343 360.288,203.185 360.246,202.800 360.246 C 202.415 360.246,202.258 360.288,202.450 360.338 M209.050 360.338 C 209.243 360.388,209.558 360.388,209.750 360.338 C 209.943 360.288,209.785 360.246,209.400 360.246 C 209.015 360.246,208.857 360.288,209.050 360.338 M251.552 360.341 C 251.801 360.389,252.161 360.387,252.352 360.337 C 252.544 360.287,252.340 360.248,251.900 360.250 C 251.460 360.253,251.304 360.294,251.552 360.341 M313.150 360.341 C 313.398 360.389,313.803 360.389,314.050 360.341 C 314.298 360.293,314.095 360.254,313.600 360.254 C 313.105 360.254,312.903 360.293,313.150 360.341 M153.150 360.546 C 153.618 360.589,154.383 360.589,154.850 360.546 C 155.317 360.504,154.935 360.470,154.000 360.470 C 153.065 360.470,152.683 360.504,153.150 360.546 M204.950 360.546 C 205.418 360.589,206.183 360.589,206.650 360.546 C 207.118 360.504,206.735 360.470,205.800 360.470 C 204.865 360.470,204.483 360.504,204.950 360.546 M308.955 360.547 C 309.426 360.589,310.146 360.588,310.555 360.545 C 310.965 360.502,310.580 360.468,309.700 360.469 C 308.820 360.469,308.485 360.504,308.955 360.547 M58.832 362.900 C 58.831 363.230,58.949 363.860,59.094 364.300 C 59.439 365.344,59.443 365.003,59.104 363.500 C 58.935 362.751,58.833 362.526,58.832 362.900 M340.927 363.327 C 340.857 363.843,340.837 364.304,340.884 364.351 C 340.931 364.398,341.033 364.019,341.109 363.509 C 341.186 362.999,341.205 362.538,341.152 362.485 C 341.099 362.432,340.998 362.811,340.927 363.327 M337.613 365.517 C 337.352 366.009,336.551 366.961,335.834 367.632 C 335.117 368.302,334.704 368.758,334.917 368.645 C 335.871 368.134,338.453 364.986,338.159 364.692 C 338.120 364.653,337.874 365.024,337.613 365.517 M339.951 366.209 C 339.017 368.163,337.216 370.037,335.335 371.012 C 334.614 371.386,334.058 371.725,334.098 371.765 C 334.328 371.995,336.893 370.308,338.022 369.185 C 339.203 368.010,341.069 364.990,340.781 364.720 C 340.737 364.677,340.363 365.348,339.951 366.209 M59.406 365.272 C 59.341 367.186,64.171 371.586,66.900 372.101 C 67.230 372.163,66.950 372.001,66.278 371.742 C 63.521 370.678,61.427 368.878,60.142 366.469 C 59.740 365.716,59.409 365.177,59.406 365.272 M62.400 365.879 C 62.400 366.111,64.645 368.411,65.098 368.643 C 65.319 368.756,65.121 368.519,64.658 368.116 C 64.196 367.713,63.498 367.011,63.108 366.556 C 62.719 366.100,62.400 365.796,62.400 365.879 M332.900 372.000 C 332.648 372.108,332.611 372.172,332.800 372.172 C 332.965 372.172,333.280 372.095,333.500 372.000 C 333.752 371.892,333.789 371.828,333.600 371.828 C 333.435 371.828,333.120 371.905,332.900 372.000 M134.350 372.550 C 170.458 372.578,229.543 372.578,265.650 372.550 C 301.758 372.522,272.215 372.499,200.000 372.499 C 127.785 372.499,98.243 372.522,134.350 372.550 " stroke="none" fill="#d4c4d4" fill-rule="evenodd"></path></g></svg>